<svg width="28" height="28" viewBox="0 0 28 28" fill="none" xmlns="http://www.w3.org/2000/svg">
<path d="M23.6559 21.9922L19.1392 17.4755C20.2029 16.0657 20.8412 14.3186 20.8412 12.4206C20.8412 7.77745 17.0627 4 12.4206 4C7.77745 4.00098 4 7.77843 4 12.4216C4 17.0637 7.77745 20.8422 12.4206 20.8422C14.3176 20.8422 16.0657 20.2039 17.4755 19.1402L21.9922 23.6569C22.2216 23.8863 22.5225 24.001 22.8235 24.001C23.1245 24.001 23.4255 23.8863 23.6559 23.6559C24.1147 23.1971 24.1147 22.452 23.6559 21.9922ZM6.35294 12.4216C6.35294 9.07549 9.07451 6.35392 12.4206 6.35392C15.7657 6.35392 18.4873 9.07549 18.4873 12.4206C18.4873 15.7657 15.7657 18.4873 12.4206 18.4873C9.07451 18.4882 6.35294 15.7667 6.35294 12.4216Z" fill="#909090"/>
</svg>
