<svg width="28" height="28" viewBox="0 0 28 28" fill="none" xmlns="http://www.w3.org/2000/svg">
<path fill-rule="evenodd" clip-rule="evenodd" d="M22.7699 10.8262L14.6019 4.21414C14.4311 4.0755 14.219 4 14.0005 4C13.782 4 13.5699 4.0755 13.399 4.21414L5.23006 10.8262C5.00239 11.0105 4.8185 11.2448 4.6921 11.5115C4.5657 11.7782 4.50003 12.0706 4.5 12.3667V21.6375C4.5 22.2641 4.7445 22.865 5.17973 23.308C5.61495 23.7511 6.20523 24 6.82073 24H12.0665V19.3223C12.0665 19.0612 12.1684 18.8108 12.3498 18.6262C12.5311 18.4416 12.7771 18.3379 13.0335 18.3379H14.9675C15.2239 18.3379 15.4699 18.4416 15.6512 18.6262C15.8325 18.8108 15.9344 19.0612 15.9344 19.3223V24H21.1793C21.7948 24 22.3851 23.7511 22.8203 23.308C23.2555 22.865 23.5 22.2641 23.5 21.6375V12.3677C23.5 12.0715 23.4343 11.7792 23.3079 11.5125C23.1815 11.2458 22.9976 11.0105 22.7699 10.8262Z" fill="#909090"/>
</svg>
