<svg width="28" height="28" viewBox="0 0 28 28" fill="none" xmlns="http://www.w3.org/2000/svg">
<path fill-rule="evenodd" clip-rule="evenodd" d="M18.7495 8.77454C18.7496 9.40161 18.6268 10.0225 18.3882 10.6019C18.1495 11.1813 17.7997 11.7077 17.3588 12.1511C16.9178 12.5946 16.3942 12.9464 15.818 13.1864C15.2418 13.4264 14.6242 13.55 14.0005 13.5501C12.7408 13.5502 11.5327 13.0472 10.6419 12.1518C9.75113 11.2564 9.25061 10.0419 9.25048 8.77552C9.25042 8.14845 9.37321 7.52751 9.61183 6.94815C9.85046 6.3688 10.2003 5.84237 10.6412 5.39892C11.5319 4.50334 12.7399 4.00013 13.9995 4C15.2592 3.99987 16.4673 4.50283 17.3581 5.39823C18.2489 6.29363 18.7494 7.50812 18.7495 8.77454ZM14 15.0109C7.1605 15.0109 4.5 19.3869 4.5 21.4228C4.5 23.4576 10.1635 24 14 24C17.8365 24 23.5 23.4576 23.5 21.4228C23.5 19.3869 20.8395 15.0109 14 15.0109Z" fill="#024873"/>
</svg>
