<svg width="46" height="46" viewBox="0 0 46 46" fill="none" xmlns="http://www.w3.org/2000/svg">
<circle cx="23" cy="23" r="22.425" fill="white" stroke="#E2E2E2" stroke-width="1.15"/>
<path fill-rule="evenodd" clip-rule="evenodd" d="M35.4997 23.3057C35.5007 22.413 35.4216 21.5221 35.2631 20.6436H23.0065V25.6761H30.0087C29.8634 26.4713 29.5584 27.2289 29.1122 27.903C28.6661 28.5771 28.0879 29.1538 27.4127 29.5983V32.8634H31.6168C34.0767 30.5984 35.496 27.2621 35.496 23.3032L35.4997 23.3057Z" fill="#3E82F1"/>
<path fill-rule="evenodd" clip-rule="evenodd" d="M23.0106 36.0197C26.5234 36.0197 29.4687 34.8553 31.6209 32.8685L27.4169 29.6034C26.2513 30.3841 24.7609 30.8462 23.0106 30.8462C19.6217 30.8462 16.7536 28.5566 15.7314 25.4814H11.384V28.8533C12.4669 31.0083 14.1278 32.8198 16.181 34.0853C18.2342 35.3509 20.5988 36.0206 23.0106 36.0197Z" fill="#32A753"/>
<path fill-rule="evenodd" clip-rule="evenodd" d="M15.7311 25.4809C15.1869 23.8782 15.1869 22.1406 15.7311 20.5378V17.166H11.3837C10.4738 18.9795 10 20.9804 10 23.0094C10 25.0383 10.4738 27.0392 11.3837 28.8527L15.7311 25.4809Z" fill="#F9BB00"/>
<path fill-rule="evenodd" clip-rule="evenodd" d="M23.0111 15.1735C24.9219 15.1735 26.6366 15.8305 27.9848 17.1199L31.7157 13.3877C29.4629 11.2882 26.5177 10 23.0135 10C20.6016 9.9991 18.237 10.6688 16.1838 11.9344C14.1307 13.1999 12.4698 15.0114 11.3868 17.1665L15.7343 20.5383C16.7565 17.4631 19.6245 15.1735 23.0135 15.1735H23.0111Z" fill="#E74133"/>
</svg>
