<svg width="22" height="22" viewBox="0 0 22 22" fill="none" xmlns="http://www.w3.org/2000/svg">
<path d="M9.98382 10.0833V6.875M9.98382 13.2917H9.97466M9.98382 18.3333C5.6806 18.3333 2.19216 14.8449 2.19216 10.5417C2.19216 6.23845 5.6806 2.75 9.98382 2.75C14.287 2.75 17.7755 6.23845 17.7755 10.5417C17.7755 11.4125 17.6326 12.25 17.3691 13.0319C17.2699 13.3262 17.2203 13.4733 17.2113 13.5863C17.2025 13.6979 17.2092 13.7762 17.2368 13.8847C17.2648 13.9946 17.3265 14.1089 17.45 14.3374L18.9493 17.1127C19.1632 17.5085 19.2701 17.7064 19.2462 17.8592C19.2254 17.9923 19.1471 18.1094 19.0321 18.1795C18.9001 18.2601 18.6763 18.2369 18.2287 18.1907L13.5345 17.7054C13.3923 17.6907 13.3212 17.6834 13.2565 17.6859C13.1927 17.6883 13.1477 17.6943 13.0856 17.7086C13.0224 17.7232 12.943 17.7538 12.7841 17.815C11.9151 18.1498 10.9709 18.3333 9.98382 18.3333Z" stroke="#222222" stroke-width="2" stroke-linecap="round" stroke-linejoin="round"/>
</svg>
