<svg width="260" height="70" viewBox="0 0 260 70" fill="none" xmlns="http://www.w3.org/2000/svg">
<path fill-rule="evenodd" clip-rule="evenodd" d="M84.6741 13.7925L69.3099 51.7202H76.992L87.2347 24.2373L100.038 51.7202H116.957L116.957 51.7203H120.881L120.88 51.7202H137.595L119.67 13.7925H84.6741ZM120.88 51.7202L108.35 24.1365H104.426L116.957 51.7202H120.88Z" fill="#024873"/>
<path d="M17.5663 52.423C14.1726 52.423 11.1373 51.7231 8.46051 50.3232C5.83154 48.9233 3.75226 46.7511 2.22268 43.8066C0.740892 40.862 0 37.0968 0 32.511C0 27.7321 0.788692 23.8462 2.36608 20.8534C3.94346 17.8605 6.07054 15.6642 8.74731 14.2643C11.4719 12.8644 14.5549 12.1645 17.9965 12.1645C19.9563 12.1645 21.8444 12.3817 23.6607 12.8161C25.4771 13.2023 26.9589 13.685 28.1061 14.2643L26.1702 19.55C25.023 19.1156 23.6847 18.7053 22.1551 18.3191C20.6255 17.9329 19.1915 17.7398 17.8531 17.7398C15.2719 17.7398 13.1449 18.295 11.4719 19.4052C9.7989 20.5155 8.55611 22.1567 7.74352 24.3289C6.93093 26.5012 6.52463 29.2044 6.52463 32.4386C6.52463 35.528 6.93093 38.1588 7.74352 40.331C8.55611 42.5032 9.775 44.1445 11.4002 45.2547C13.0254 46.365 15.0568 46.9201 17.4946 46.9201C19.5978 46.9201 21.4381 46.7029 23.0155 46.2684C24.6406 45.834 26.1224 45.303 27.4608 44.6754V50.3232C26.1702 50.999 24.7362 51.5059 23.1589 51.8438C21.6293 52.23 19.7651 52.423 17.5663 52.423Z" fill="#024873"/>
<path d="M51.1552 12.2369C55.8395 12.2369 59.305 13.2747 61.5516 15.3504C63.7981 17.4261 64.9214 20.7327 64.9214 25.2702V51.699H60.3327L59.1138 46.196H58.827C57.7276 47.5959 56.5804 48.7785 55.3854 49.744C54.2382 50.6611 52.8999 51.3369 51.3703 51.7714C49.8885 52.2058 48.0721 52.423 45.9211 52.423C43.6268 52.423 41.5475 52.0127 39.6833 51.1921C37.8669 50.3715 36.4329 49.1164 35.3813 47.4269C34.3298 45.6891 33.804 43.5169 33.804 40.9103C33.804 37.0485 35.3096 34.0798 38.321 32.0041C41.3324 29.8802 45.9689 28.7216 52.2307 28.5286L58.7553 28.3113V25.9943C58.7553 22.7601 58.0622 20.5155 56.676 19.2604C55.2898 18.0053 53.3301 17.3778 50.7967 17.3778C48.7891 17.3778 46.8771 17.6916 45.0607 18.3191C43.2444 18.8984 41.5475 19.5742 39.9701 20.3465L38.0342 15.5676C39.7072 14.6505 41.6909 13.8781 43.9852 13.2506C46.2796 12.5748 48.6696 12.2369 51.1552 12.2369ZM53.0193 32.9454C48.2394 33.1385 44.9173 33.9109 43.0532 35.2625C41.2368 36.6141 40.3286 38.5208 40.3286 40.9827C40.3286 43.1549 40.9739 44.7478 42.2645 45.7616C43.6029 46.7753 45.2997 47.2821 47.3551 47.2821C50.6055 47.2821 53.3061 46.3891 55.4571 44.603C57.6081 42.7687 58.6836 39.969 58.6836 36.2038V32.7282L53.0193 32.9454Z" fill="#024873"/>
<path d="M159.602 12.1645C164.334 12.1645 168.134 13.8298 171.002 17.1606C173.918 20.4913 175.375 25.5116 175.375 32.2213C175.375 36.6141 174.706 40.331 173.368 43.3721C172.077 46.3649 170.237 48.6337 167.847 50.1784C165.505 51.6748 162.732 52.423 159.53 52.423C157.57 52.423 155.825 52.1576 154.296 51.6266C152.766 51.0956 151.452 50.4198 150.352 49.5992C149.301 48.7303 148.393 47.789 147.628 46.7753H147.198C147.293 47.5959 147.389 48.6337 147.484 49.8888C147.58 51.1438 147.628 52.23 147.628 53.1471V69.0768H141.318V12.8885H146.481L147.341 18.1743H147.628C148.393 17.064 149.301 16.0503 150.352 15.1332C151.452 14.216 152.742 13.4919 154.224 12.9609C155.754 12.43 157.546 12.1645 159.602 12.1645ZM158.454 17.5226C155.873 17.5226 153.794 18.0295 152.217 19.0432C150.639 20.0086 149.492 21.4809 148.775 23.46C148.058 25.4392 147.676 27.9493 147.628 30.9904V32.2213C147.628 35.4073 147.962 38.1105 148.632 40.331C149.301 42.5515 150.424 44.241 152.001 45.3995C153.627 46.558 155.825 47.1373 158.598 47.1373C160.94 47.1373 162.852 46.4856 164.334 45.1823C165.863 43.879 166.987 42.117 167.704 39.8965C168.468 37.6278 168.851 35.0452 168.851 32.1489C168.851 27.7079 167.99 24.16 166.27 21.505C164.597 18.8501 161.992 17.5226 158.454 17.5226Z" fill="#024873"/>
<path d="M223.516 33.4523C223.516 37.0244 222.799 40.2586 221.365 43.1549C219.931 46.0029 217.732 48.2717 214.769 49.9612C211.853 51.6024 208.125 52.423 203.584 52.423C197.226 52.423 192.375 50.6853 189.029 47.2097C185.731 43.6859 184.081 39.0518 184.081 33.3075V0H190.534V33.5247C190.534 37.7243 191.634 40.9827 193.833 43.2997C196.079 45.6167 199.449 46.7753 203.942 46.7753C207.049 46.7753 209.559 46.2201 211.471 45.1099C213.43 43.9514 214.864 42.3825 215.773 40.4034C216.681 38.376 217.135 36.0589 217.135 33.4523V0H223.516V33.4523Z" fill="#024873"/>
<path d="M259.483 40.9827C259.483 43.4928 258.862 45.5926 257.619 47.2821C256.376 48.9716 254.607 50.2508 252.313 51.1197C250.019 51.9886 247.294 52.423 244.139 52.423C241.463 52.423 239.144 52.2058 237.185 51.7714C235.273 51.3369 233.576 50.7335 232.094 49.9612V44.1686C233.623 44.9409 235.464 45.665 237.615 46.3408C239.813 46.9683 242.036 47.2821 244.283 47.2821C247.485 47.2821 249.804 46.7753 251.238 45.7616C252.672 44.6996 253.389 43.2997 253.389 41.5619C253.389 40.5965 253.126 39.7276 252.6 38.9552C252.074 38.1829 251.118 37.4106 249.732 36.6382C248.394 35.8659 246.458 34.997 243.924 34.0315C241.439 33.0661 239.312 32.1007 237.543 31.1352C235.774 30.1698 234.412 29.0113 233.456 27.6597C232.5 26.3081 232.022 24.5703 232.022 22.4463C232.022 19.1639 233.337 16.6296 235.966 14.8435C238.642 13.0575 242.132 12.1645 246.434 12.1645C248.776 12.1645 250.951 12.4058 252.958 12.8885C255.014 13.323 256.926 13.9505 258.694 14.7711L256.543 19.8397C255.492 19.3569 254.368 18.9466 253.173 18.6087C252.026 18.2226 250.855 17.9329 249.66 17.7398C248.465 17.4985 247.246 17.3778 246.004 17.3778C243.422 17.3778 241.439 17.8123 240.052 18.6811C238.714 19.5018 238.045 20.6361 238.045 22.0843C238.045 23.1463 238.356 24.0634 238.977 24.8358C239.598 25.5599 240.626 26.2839 242.06 27.008C243.542 27.6838 245.502 28.5044 247.939 29.4699C250.377 30.387 252.456 31.3283 254.177 32.2938C255.898 33.2592 257.213 34.4418 258.121 35.8417C259.029 37.1933 259.483 38.907 259.483 40.9827Z" fill="#024873"/>
</svg>
