<svg width="46" height="46" viewBox="0 0 46 46" fill="none" xmlns="http://www.w3.org/2000/svg">
<circle cx="23" cy="23" r="23" fill="#F9E000"/>
<path d="M22.9944 12.5C15.9091 12.5 10.1562 17.0394 10.1562 22.6422C10.1562 26.2877 12.5906 29.4827 16.2434 31.2704C15.9745 32.2708 15.2745 34.9038 15.1292 35.461C14.9548 36.1586 15.3859 36.1489 15.6669 35.9624L20.6036 32.6075C21.3919 32.7237 22.1878 32.782 22.9847 32.7819C30.0699 32.7819 35.8229 28.2425 35.8229 22.6422C35.8229 17.0418 30.0796 12.5 22.9847 12.5" fill="#371C1D"/>
<path d="M14.0453 20.7746H15.3679C15.3679 20.7746 15.3679 24.408 15.3679 25.2461C15.3679 25.8638 16.7414 25.8711 16.7389 25.2461V20.8109C16.7389 20.8109 17.1798 20.8109 18.0518 20.8109C18.873 20.8109 18.873 19.5198 18.0518 19.5198C17.1265 19.5198 14.0356 19.4932 14.0356 19.4932C13.2605 19.4932 13.2629 20.76 14.0356 20.76" fill="#F9E000"/>
<path d="M20.3627 21.0098L21.0894 23.311H19.5561L20.3627 21.0098ZM19.5391 19.9319C19.2145 20.6464 18.0421 24.0255 17.6521 24.9218C17.3712 25.5685 18.5847 26.099 18.8633 25.4499L19.1297 24.527H21.552C21.552 24.527 21.4697 24.5633 21.7943 25.4111C22.0535 26.0966 23.3082 25.6218 23.049 24.9266C22.6784 23.9456 21.3946 20.4212 21.1596 19.9222C21.053 19.6799 20.6752 19.5249 20.29 19.5249C20.1412 19.5119 19.9918 19.5425 19.8602 19.613C19.7285 19.6836 19.6203 19.791 19.5488 19.9222" fill="#F9E000"/>
<path d="M23.5036 20.1424C23.5036 21.2906 23.5036 24.987 23.5036 24.987C23.5036 24.987 23.397 25.7137 24.0268 25.7137H26.6792C27.2993 25.7137 27.2945 24.3935 26.6792 24.3935C26.0639 24.3935 24.9255 24.3935 24.9255 24.3935C24.9255 24.3935 24.9255 20.9708 24.9255 20.14C24.9205 20.0514 24.8974 19.9648 24.8575 19.8855C24.8177 19.8062 24.7619 19.736 24.6938 19.6792C24.6256 19.6224 24.5465 19.5802 24.4613 19.5553C24.3762 19.5304 24.2868 19.5233 24.1988 19.5344C23.8403 19.5344 23.4842 19.7379 23.4842 20.1424" fill="#F9E000"/>
<path d="M27.4707 19.9606C27.4852 20.462 27.4537 25.0159 27.4561 25.355C27.4561 25.8879 28.8102 25.8855 28.8102 25.355V23.5649L29.2099 23.2452L30.9491 25.619C31.3003 26.0841 32.4025 25.246 32.0561 24.7809L30.2079 22.3465C30.2079 22.3465 31.4626 20.99 31.9568 20.4983C32.2474 20.2125 31.3536 19.3114 31.0653 19.5996C30.7771 19.8879 28.8199 21.8427 28.8199 21.8427C28.8199 21.8427 28.8368 20.6073 28.8199 19.9242C28.8199 19.665 28.4953 19.5415 28.1707 19.5415C27.8461 19.5415 27.4658 19.6844 27.4731 19.963" fill="#F9E000"/>
</svg>
