<svg width="93" height="21" viewBox="0 0 93 21" fill="none" xmlns="http://www.w3.org/2000/svg">
<path d="M8.35005 16.25V14.6H10.45V16.25C10.45 17.59 10.04 18.63 9.22005 19.37C8.40005 20.09 7.17005 20.45 5.53005 20.45C3.89005 20.45 2.65005 20.09 1.81005 19.37C0.970049 18.63 0.550049 17.59 0.550049 16.25V4.24999C0.550049 2.90999 0.960049 1.87999 1.78005 1.15999C2.60005 0.419988 3.83005 0.0499878 5.47005 0.0499878C7.11005 0.0499878 8.35005 0.419988 9.19005 1.15999C10.03 1.87999 10.45 2.90999 10.45 4.24999V7.09999H8.35005V4.24999C8.35005 2.64999 7.40005 1.84999 5.50005 1.84999C3.60005 1.84999 2.65005 2.64999 2.65005 4.24999V16.25C2.65005 17.85 3.60005 18.65 5.50005 18.65C7.40005 18.65 8.35005 17.85 8.35005 16.25Z" fill="white"/>
<path d="M25.0071 20H24.1071L23.3271 18.08C22.9071 18.8 22.3571 19.38 21.6771 19.82C20.9971 20.24 20.2471 20.45 19.4271 20.45C16.5471 20.45 15.1071 19.05 15.1071 16.25V13.25C15.1071 10.45 16.5471 9.04999 19.4271 9.04999H22.9071V4.12999C22.9071 3.40999 22.6771 2.84999 22.2171 2.44999C21.7571 2.04999 21.0771 1.84999 20.1771 1.84999C18.3971 1.84999 17.5071 2.60999 17.5071 4.12999V5.89999H15.4071V4.24999C15.4071 2.90999 15.7971 1.87999 16.5771 1.15999C17.3771 0.419988 18.5771 0.0499878 20.1771 0.0499878C21.7771 0.0499878 22.9771 0.419988 23.7771 1.15999C24.5971 1.87999 25.0071 2.90999 25.0071 4.24999V20ZM22.9071 10.85H19.4271C18.5871 10.85 18.0071 11.06 17.6871 11.48C17.3671 11.9 17.2071 12.49 17.2071 13.25V16.25C17.2071 17.01 17.3671 17.6 17.6871 18.02C18.0071 18.44 18.5871 18.65 19.4271 18.65C20.2671 18.65 21.0471 18.33 21.7671 17.69C22.4871 17.03 22.8671 16.38 22.9071 15.74V10.85Z" fill="white"/>
<path d="M32.8071 20H30.7071V0.499988H31.6071L32.3571 2.41999C32.7771 1.69999 33.3271 1.12999 34.0071 0.709989C34.6871 0.269988 35.4271 0.0499878 36.2271 0.0499878C38.2471 0.0499878 39.5371 0.779988 40.0971 2.23999C41.0571 0.779988 42.3171 0.0499878 43.8771 0.0499878C46.6971 0.0499878 48.1071 1.44999 48.1071 4.24999V20H46.0071V4.24999C46.0071 2.64999 45.2871 1.84999 43.8471 1.84999C43.0071 1.84999 42.2271 2.18999 41.5071 2.86999C40.8071 3.54999 40.4571 4.20999 40.4571 4.84999V20H38.3571V4.24999C38.3571 2.64999 37.6371 1.84999 36.1971 1.84999C35.3571 1.84999 34.5771 2.17999 33.8571 2.83999C33.1571 3.47999 32.8071 4.11999 32.8071 4.75999V20Z" fill="white"/>
<path d="M55.593 20H53.493V0.499988H58.023C59.583 0.499988 60.763 0.869987 61.563 1.60999C62.383 2.34999 62.793 3.37999 62.793 4.69999V9.79999C62.793 11.14 62.393 12.18 61.593 12.92C60.793 13.64 59.603 14 58.023 14H55.593V20ZM60.693 9.79999V4.69999C60.693 3.93999 60.463 3.34999 60.003 2.92999C59.543 2.50999 58.883 2.29999 58.023 2.29999H55.593V12.2H58.023C59.803 12.2 60.693 11.4 60.693 9.79999Z" fill="white"/>
<path d="M75.3918 16.25V0.499988H77.4918V16.25C77.4918 17.59 77.0618 18.63 76.2018 19.37C75.3618 20.09 74.0918 20.45 72.3918 20.45C70.7118 20.45 69.4418 20.09 68.5818 19.37C67.7218 18.63 67.2918 17.59 67.2918 16.25V0.499988H69.3918V16.25C69.3918 17.85 70.3918 18.65 72.3918 18.65C74.3918 18.65 75.3918 17.85 75.3918 16.25Z" fill="white"/>
<path d="M92.7178 16.25C92.7178 19.05 91.0278 20.45 87.6478 20.45C84.2678 20.45 82.5778 19.05 82.5778 16.25V13.7H84.6778V16.37C84.6778 17.09 84.9278 17.65 85.4278 18.05C85.9278 18.45 86.6678 18.65 87.6478 18.65C88.6278 18.65 89.3678 18.45 89.8678 18.05C90.3678 17.65 90.6178 17.11 90.6178 16.43C90.6178 15.73 90.5378 15.18 90.3778 14.78C90.2378 14.36 89.9378 13.92 89.4778 13.46L84.1978 8.29999C83.5778 7.67999 83.1478 7.07999 82.9078 6.49999C82.6878 5.89999 82.5778 5.14999 82.5778 4.24999C82.5778 2.90999 82.9878 1.87999 83.8078 1.15999C84.6478 0.419988 85.9078 0.0499878 87.5878 0.0499878C90.8078 0.0499878 92.4178 1.44999 92.4178 4.24999V6.79999H90.3178V4.12999C90.3178 3.40999 90.0778 2.84999 89.5978 2.44999C89.1378 2.04999 88.4378 1.84999 87.4978 1.84999C86.5578 1.84999 85.8478 2.04999 85.3678 2.44999C84.9078 2.84999 84.6778 3.39999 84.6778 4.09999C84.6778 4.79999 84.7478 5.34999 84.8878 5.74999C85.0278 6.14999 85.3378 6.56999 85.8178 7.00999L91.1878 12.17C91.7678 12.81 92.1678 13.43 92.3878 14.03C92.6078 14.61 92.7178 15.35 92.7178 16.25Z" fill="white"/>
</svg>
