<svg width="34" height="43" viewBox="0 0 34 43" fill="none" xmlns="http://www.w3.org/2000/svg">
<path d="M16.8333 7.8418C15.4401 7.8418 14.104 8.40418 13.1189 9.40524C12.1338 10.4063 11.5804 11.764 11.5804 13.1797C11.5804 14.5954 12.1338 15.9532 13.1189 16.9542C14.104 17.9553 15.4401 18.5177 16.8333 18.5177V7.8418Z" fill="#FEF37C"/>
<path d="M16.8333 3.05176e-05C16.624 0.0135079 16.4275 0.10737 16.2838 0.262589C16.14 0.417809 16.0597 0.622771 16.0591 0.835926V6.09912C16.0597 6.31227 16.14 6.51723 16.2838 6.67245C16.4275 6.82767 16.624 6.92153 16.8333 6.93501V3.05176e-05Z" fill="#FEF37C"/>
<path d="M3.87308 13.221C3.87308 13.4443 3.96036 13.6584 4.11571 13.8162C4.27107 13.9741 4.48177 14.0628 4.70148 14.0628H9.88085C10.1006 14.0628 10.3113 13.9741 10.4666 13.8162C10.622 13.6584 10.7092 13.4443 10.7092 13.221C10.7092 12.9977 10.622 12.7836 10.4666 12.6258C10.3113 12.4679 10.1006 12.3792 9.88085 12.3792H4.69566C4.47697 12.3808 4.26776 12.4701 4.11366 12.6278C3.95956 12.7855 3.87307 12.9988 3.87308 13.221Z" fill="#FEF37C"/>
<path d="M7.68599 22.583C7.84091 22.7377 8.04943 22.8244 8.26664 22.8244C8.48385 22.8244 8.69237 22.7377 8.84729 22.583L12.5189 18.846C12.653 18.6854 12.723 18.4796 12.7151 18.2691C12.7071 18.0586 12.6218 17.8588 12.4759 17.7091C12.3301 17.5594 12.1343 17.4708 11.9273 17.4606C11.7203 17.4504 11.517 17.5195 11.3576 17.6541L7.68599 21.3832C7.60792 21.4617 7.54595 21.5551 7.50365 21.6581C7.46135 21.761 7.43958 21.8715 7.43958 21.9831C7.43958 22.0947 7.46135 22.2051 7.50365 22.3081C7.54595 22.4111 7.60792 22.5045 7.68599 22.583Z" fill="#FEF37C"/>
<path d="M7.68603 3.86902C7.53084 4.02686 7.44366 4.24086 7.44366 4.46398C7.44366 4.6871 7.53084 4.9011 7.68603 5.05894L11.348 8.78015C11.4197 8.87539 11.5106 8.95395 11.6146 9.01059C11.7187 9.06722 11.8334 9.10062 11.9511 9.10854C12.0689 9.11646 12.1869 9.09873 12.2974 9.05652C12.4079 9.01432 12.5082 8.94862 12.5916 8.86382C12.6751 8.77903 12.7397 8.67709 12.7812 8.56484C12.8228 8.4526 12.8402 8.33263 12.8324 8.21297C12.8246 8.09331 12.7918 7.97673 12.736 7.87103C12.6803 7.76532 12.603 7.67294 12.5093 7.60006L8.857 3.86902C8.70167 3.71132 8.49108 3.62274 8.27151 3.62274C8.05194 3.62274 7.84136 3.71132 7.68603 3.86902Z" fill="#FEF37C"/>
<path d="M16.8062 7.8418C18.1993 7.8418 19.5354 8.40418 20.5206 9.40524C21.5057 10.4063 22.0591 11.764 22.0591 13.1797C22.0591 14.5954 21.5057 15.9532 20.5206 16.9542C19.5354 17.9553 18.1993 18.5177 16.8062 18.5177V7.8418Z" fill="#FEE436"/>
<path d="M16.8062 3.05176e-05C17.0155 0.0135079 17.212 0.10737 17.3558 0.262589C17.4995 0.417809 17.5798 0.622771 17.5804 0.835926V6.09912C17.5803 6.31241 17.5001 6.51763 17.3563 6.67295C17.2124 6.82827 17.0157 6.92199 16.8062 6.93501V3.05176e-05Z" fill="#FEE436"/>
<path d="M29.7645 13.221C29.7645 13.4443 29.6772 13.6584 29.5219 13.8162C29.3665 13.9741 29.1558 14.0628 28.9361 14.0628H23.7567C23.537 14.0628 23.3263 13.9741 23.171 13.8162C23.0156 13.6584 22.9283 13.4443 22.9283 13.221C22.9283 12.9977 23.0156 12.7836 23.171 12.6258C23.3263 12.4679 23.537 12.3792 23.7567 12.3792H28.9361C29.1558 12.3792 29.3665 12.4679 29.5219 12.6258C29.6772 12.7836 29.7645 12.9977 29.7645 13.221Z" fill="#FEE436"/>
<path d="M25.9517 22.583C25.7964 22.7407 25.5858 22.8293 25.3662 22.8293C25.1467 22.8293 24.9361 22.7407 24.7808 22.583L21.1188 18.846C20.9754 18.6856 20.8982 18.4752 20.9033 18.2585C20.9084 18.0418 20.9954 17.8354 21.1463 17.6821C21.2971 17.5288 21.5002 17.4404 21.7135 17.4352C21.9268 17.43 22.1338 17.5084 22.2917 17.6542L25.9517 21.3754C26.0315 21.4537 26.0949 21.5475 26.1382 21.6512C26.1815 21.755 26.2038 21.8665 26.2038 21.9792C26.2038 22.0919 26.1815 22.2034 26.1382 22.3071C26.0949 22.4108 26.0315 22.5047 25.9517 22.583Z" fill="#FEE436"/>
<path d="M25.9515 3.86875C26.0288 3.94664 26.0902 4.03932 26.132 4.14144C26.1739 4.24355 26.1955 4.35309 26.1955 4.46371C26.1955 4.57434 26.1739 4.68387 26.132 4.78599C26.0902 4.8881 26.0288 4.98078 25.9515 5.05867L22.2915 8.77988C22.2181 8.86961 22.1271 8.94284 22.0243 8.99493C21.9216 9.04702 21.8093 9.07684 21.6946 9.08248C21.5799 9.08812 21.4653 9.06946 21.358 9.02769C21.2508 8.98593 21.1533 8.92196 21.0717 8.83986C20.9901 8.75775 20.9262 8.65931 20.884 8.55076C20.8418 8.44222 20.8223 8.32596 20.8268 8.20935C20.8312 8.09274 20.8594 7.97834 20.9096 7.8734C20.9598 7.76847 21.031 7.6753 21.1186 7.5998L24.7805 3.87859C24.9346 3.71958 25.1444 3.62922 25.364 3.62738C25.5836 3.62553 25.7949 3.71235 25.9515 3.86875Z" fill="#FEE436"/>
<path d="M28.9768 20.0693C28.3554 17.8323 27.03 15.8637 25.2035 14.4644C23.3769 13.0652 21.1496 12.3124 18.8622 12.3211C16.5748 12.3298 14.3531 13.0995 12.5369 14.5126C10.7207 15.9257 9.40996 17.9044 8.80503 20.146C7.87431 19.8488 6.89141 19.7594 5.92355 19.8839C4.95568 20.0084 4.02569 20.3438 3.19719 20.8673C2.3687 21.3908 1.66124 22.0899 1.12322 22.9169C0.585194 23.7439 0.229296 24.6792 0.0798702 25.6589C-0.0695554 26.6386 -0.0089827 27.6395 0.257442 28.5932C0.523867 29.5469 0.989857 30.4308 1.62354 31.1846C2.25723 31.9384 3.04365 32.5442 3.92902 32.9605C4.81439 33.3769 5.77782 33.594 6.75341 33.5971H27.1903C28.837 33.6058 30.4305 33.0047 31.6727 31.9062C32.9149 30.8077 33.7209 29.287 33.9398 27.6285C34.1587 25.97 33.7756 24.2872 32.8622 22.8949C31.9488 21.5026 30.5675 20.496 28.9768 20.0634V20.0693Z" fill="white"/>
<path d="M10.6957 35.0055C10.8141 35.1257 10.908 35.2684 10.9721 35.4255C11.0362 35.5826 11.0691 35.751 11.0691 35.9211C11.0691 36.0911 11.0362 36.2595 10.9721 36.4166C10.908 36.5737 10.8141 36.7164 10.6957 36.8366L5.05565 42.5679C4.93721 42.6883 4.7966 42.7838 4.64184 42.8489C4.48709 42.914 4.32122 42.9476 4.15372 42.9476C3.98621 42.9476 3.82035 42.914 3.66559 42.8489C3.51084 42.7838 3.37021 42.6883 3.25177 42.5679C3.13333 42.4476 3.03937 42.3047 2.97527 42.1474C2.91117 41.9902 2.87817 41.8216 2.87817 41.6514C2.87817 41.4812 2.91117 41.3126 2.97527 41.1554C3.03937 40.9981 3.13333 40.8552 3.25177 40.7349L8.89181 35.0055C9.01012 34.8849 9.15069 34.7892 9.30546 34.724C9.46024 34.6587 9.62618 34.6251 9.79376 34.6251C9.96133 34.6251 10.1273 34.6587 10.282 34.724C10.4368 34.7892 10.5774 34.8849 10.6957 35.0055Z" fill="white"/>
<path d="M16.5313 35.0054C16.6497 35.1256 16.7436 35.2683 16.8077 35.4254C16.8718 35.5825 16.9048 35.7509 16.9048 35.921C16.9048 36.091 16.8718 36.2594 16.8077 36.4165C16.7436 36.5736 16.6497 36.7163 16.5313 36.8365L10.8893 42.5678C10.7709 42.6882 10.6303 42.7837 10.4755 42.8488C10.3208 42.9139 10.1549 42.9475 9.9874 42.9475C9.81989 42.9475 9.65403 42.9139 9.49927 42.8488C9.34452 42.7837 9.20389 42.6882 9.08545 42.5678C8.967 42.4475 8.87305 42.3046 8.80895 42.1473C8.74485 41.9901 8.71185 41.8215 8.71185 41.6513C8.71185 41.4811 8.74485 41.3125 8.80895 41.1553C8.87305 40.998 8.967 40.8551 9.08545 40.7348L14.7255 35.0054C14.8438 34.8845 14.9845 34.7886 15.1395 34.7231C15.2944 34.6577 15.4606 34.624 15.6284 34.624C15.7962 34.624 15.9624 34.6577 16.1173 34.7231C16.2723 34.7886 16.413 34.8845 16.5313 35.0054Z" fill="white"/>
<path d="M22.6631 35.0055C22.7815 35.1257 22.8754 35.2684 22.9395 35.4255C23.0036 35.5826 23.0366 35.751 23.0366 35.9211C23.0366 36.0911 23.0036 36.2595 22.9395 36.4166C22.8754 36.5737 22.7815 36.7164 22.6631 36.8366L17.025 42.5679C16.9066 42.6883 16.7659 42.7838 16.6112 42.8489C16.4564 42.914 16.2906 42.9476 16.1231 42.9476C15.9556 42.9476 15.7897 42.914 15.6349 42.8489C15.4802 42.7838 15.3396 42.6883 15.2211 42.5679C15.1027 42.4476 15.0087 42.3047 14.9446 42.1474C14.8805 41.9902 14.8475 41.8216 14.8475 41.6514C14.8475 41.4812 14.8805 41.3126 14.9446 41.1554C15.0087 40.9981 15.1027 40.8552 15.2211 40.7349L20.8592 35.0055C20.9775 34.8849 21.1181 34.7892 21.2729 34.724C21.4277 34.6587 21.5936 34.6251 21.7612 34.6251C21.9287 34.6251 22.0947 34.6587 22.2495 34.724C22.4042 34.7892 22.5448 34.8849 22.6631 35.0055Z" fill="white"/>
<path d="M26.9773 21.2908C26.5516 19.8034 25.7267 18.4659 24.595 17.4282C23.4632 16.3904 22.0694 15.6935 20.5698 15.4156C19.0702 15.1376 17.5241 15.2896 16.1047 15.8544C14.6853 16.4193 13.4488 17.3747 12.5338 18.6136C11.6187 19.8524 11.0613 21.3258 10.9241 22.8685C10.7868 24.4113 11.0751 25.9623 11.7566 27.3479C12.4381 28.7335 13.4859 29.8988 14.7826 30.7132C16.0793 31.5276 17.5735 31.9589 19.0979 31.9588H26.9792C28.3713 31.9588 29.7065 31.3968 30.6909 30.3965C31.6752 29.3962 32.2283 28.0395 32.2283 26.6248C32.2283 25.2101 31.6752 23.8534 30.6909 22.8531C29.7065 21.8528 28.3713 21.2908 26.9792 21.2908H26.9773Z" fill="#CFEDFA"/>
</svg>
