<svg width="88" height="23" viewBox="0 0 88 23" fill="none" xmlns="http://www.w3.org/2000/svg">
<path d="M23.8066 17.2473L28.949 4.677H40.6623L46.6618 17.2473H34.0915L29.8061 8.13871L26.3778 17.2473H23.8066Z" fill="#222222"/>
<path d="M36.7199 8.10522H35.5771L40.1482 17.2473H41.2909L36.7199 8.10522Z" fill="white"/>
<path d="M6.48788 17.4804C5.35198 17.4804 4.33607 17.2485 3.44015 16.7845C2.56023 16.3205 1.86429 15.6006 1.35233 14.6247C0.856377 13.6488 0.608398 12.4009 0.608398 10.881C0.608398 9.29715 0.872375 8.00927 1.40033 7.01735C1.92828 6.02544 2.64022 5.2975 3.53614 4.83354C4.44806 4.36959 5.47997 4.13761 6.63187 4.13761C7.28781 4.13761 7.91976 4.2096 8.5277 4.35359C9.13565 4.48157 9.63161 4.64156 10.0156 4.83354L9.36763 6.58539C8.98367 6.4414 8.5357 6.30542 8.02375 6.17743C7.51179 6.04944 7.03184 5.98544 6.58388 5.98544C5.71995 5.98544 5.00801 6.16943 4.44806 6.5374C3.88811 6.90536 3.47215 7.44932 3.20017 8.16925C2.9282 8.88919 2.79221 9.78511 2.79221 10.857C2.79221 11.8809 2.9282 12.7528 3.20017 13.4728C3.47215 14.1927 3.88011 14.7367 4.42406 15.1046C4.96802 15.4726 5.64796 15.6566 6.46389 15.6566C7.16782 15.6566 7.78377 15.5846 8.31172 15.4406C8.85568 15.2966 9.35163 15.1206 9.79959 14.9127V16.7845C9.36763 17.0085 8.88767 17.1765 8.35972 17.2885C7.84776 17.4164 7.22382 17.4804 6.48788 17.4804Z" fill="#222222"/>
<path d="M17.7302 4.1616C19.298 4.1616 20.4579 4.50557 21.2098 5.19351C21.9618 5.88145 22.3377 6.97736 22.3377 8.48123V17.2405H20.8019L20.3939 15.4166H20.2979C19.93 15.8806 19.546 16.2725 19.146 16.5925C18.7621 16.8965 18.3141 17.1205 17.8021 17.2645C17.3062 17.4084 16.6982 17.4804 15.9783 17.4804C15.2104 17.4804 14.5144 17.3444 13.8905 17.0725C13.2825 16.8005 12.8026 16.3845 12.4506 15.8246C12.0986 15.2486 11.9227 14.5287 11.9227 13.6648C11.9227 12.3849 12.4266 11.401 13.4345 10.713C14.4424 10.0091 15.9943 9.62512 18.0901 9.56113L20.2739 9.48914V8.7212C20.2739 7.6493 20.0419 6.90536 19.578 6.4894C19.114 6.07344 18.4581 5.86545 17.6102 5.86545C16.9382 5.86545 16.2983 5.96944 15.6903 6.17743C15.0824 6.36941 14.5144 6.59339 13.9865 6.84937L13.3385 5.26551C13.8985 4.96153 14.5624 4.70556 15.3304 4.49757C16.0983 4.27359 16.8982 4.1616 17.7302 4.1616ZM18.3541 11.025C16.7542 11.089 15.6423 11.345 15.0184 11.7929C14.4104 12.2409 14.1065 12.8728 14.1065 13.6888C14.1065 14.4087 14.3224 14.9367 14.7544 15.2726C15.2024 15.6086 15.7703 15.7766 16.4583 15.7766C17.5462 15.7766 18.4501 15.4806 19.17 14.8887C19.89 14.2807 20.2499 13.3528 20.2499 12.1049V10.953L18.3541 11.025Z" fill="#222222"/>
<path d="M54.0274 4.13761C55.6113 4.13761 56.8832 4.68956 57.8431 5.79346C58.819 6.89736 59.3069 8.56122 59.3069 10.785C59.3069 12.2409 59.083 13.4728 58.635 14.4807C58.203 15.4726 57.5871 16.2245 56.7872 16.7365C56.0032 17.2325 55.0753 17.4804 54.0034 17.4804C53.3475 17.4804 52.7635 17.3924 52.2516 17.2165C51.7396 17.0405 51.2996 16.8165 50.9317 16.5445C50.5797 16.2565 50.2757 15.9446 50.0198 15.6086H49.8758C49.9078 15.8806 49.9398 16.2245 49.9718 16.6405C50.0038 17.0565 50.0198 17.4164 50.0198 17.7204V23H47.9079V4.37758H49.6358L49.9238 6.12943H50.0198C50.2757 5.76146 50.5797 5.42549 50.9317 5.12152C51.2996 4.81755 51.7316 4.57757 52.2276 4.40158C52.7395 4.2256 53.3395 4.13761 54.0274 4.13761ZM53.6434 5.91345C52.7795 5.91345 52.0836 6.08143 51.5556 6.41741C51.0277 6.73738 50.6437 7.22533 50.4037 7.88128C50.1637 8.53722 50.0358 9.36915 50.0198 10.3771V10.785C50.0198 11.8409 50.1318 12.7369 50.3557 13.4728C50.5797 14.2087 50.9557 14.7687 51.4836 15.1526C52.0276 15.5366 52.7635 15.7286 53.6914 15.7286C54.4754 15.7286 55.1153 15.5126 55.6113 15.0806C56.1232 14.6487 56.4992 14.0647 56.7392 13.3288C56.9952 12.5769 57.1231 11.7209 57.1231 10.761C57.1231 9.28915 56.8352 8.11326 56.2592 7.23333C55.6993 6.35341 54.8273 5.91345 53.6434 5.91345Z" fill="#222222"/>
<path d="M75.4197 11.193C75.4197 12.3769 75.1797 13.4488 74.6998 14.4087C74.2198 15.3526 73.4839 16.1046 72.492 16.6645C71.5161 17.2085 70.2682 17.4804 68.7483 17.4804C66.6205 17.4804 64.9966 16.9045 63.8767 15.7526C62.7728 14.5847 62.2209 13.0488 62.2209 11.145V0.105957H64.3807V11.217C64.3807 12.6089 64.7487 13.6888 65.4846 14.4567C66.2365 15.2246 67.3644 15.6086 68.8683 15.6086C69.9082 15.6086 70.7481 15.4246 71.3881 15.0567C72.044 14.6727 72.524 14.1527 72.828 13.4968C73.1319 12.8248 73.2839 12.0569 73.2839 11.193V0.105957H75.4197V11.193Z" fill="#222222"/>
<path d="M87.4579 13.6888C87.4579 14.5207 87.25 15.2166 86.834 15.7766C86.418 16.3365 85.8261 16.7605 85.0581 17.0485C84.2902 17.3365 83.3783 17.4804 82.3224 17.4804C81.4265 17.4804 80.6505 17.4084 79.9946 17.2645C79.3546 17.1205 78.7867 16.9205 78.2907 16.6645V14.7447C78.8027 15.0007 79.4186 15.2406 80.1386 15.4646C80.8745 15.6726 81.6185 15.7766 82.3704 15.7766C83.4423 15.7766 84.2182 15.6086 84.6982 15.2726C85.1781 14.9207 85.4181 14.4567 85.4181 13.8808C85.4181 13.5608 85.3301 13.2728 85.1541 13.0168C84.9782 12.7608 84.6582 12.5049 84.1942 12.2489C83.7463 11.9929 83.0983 11.7049 82.2504 11.385C81.4185 11.065 80.7065 10.745 80.1146 10.4251C79.5226 10.1051 79.0667 9.72112 78.7467 9.27316C78.4267 8.8252 78.2667 8.24925 78.2667 7.54531C78.2667 6.4574 78.7067 5.61748 79.5866 5.02553C80.4825 4.43358 81.6504 4.13761 83.0903 4.13761C83.8743 4.13761 84.6022 4.2176 85.2741 4.37758C85.9621 4.52157 86.602 4.72955 87.194 5.00153L86.474 6.68138C86.1221 6.5214 85.7461 6.38541 85.3461 6.27342C84.9622 6.14543 84.5702 6.04944 84.1702 5.98544C83.7703 5.90545 83.3623 5.86545 82.9463 5.86545C82.0824 5.86545 81.4185 6.00944 80.9545 6.29742C80.5065 6.56939 80.2826 6.94536 80.2826 7.42532C80.2826 7.77729 80.3866 8.08126 80.5945 8.33724C80.8025 8.57722 81.1465 8.8172 81.6264 9.05717C82.1224 9.28115 82.7784 9.55313 83.5943 9.8731C84.4102 10.1771 85.1061 10.489 85.6821 10.809C86.258 11.129 86.698 11.521 87.002 11.9849C87.306 12.4329 87.4579 13.0008 87.4579 13.6888Z" fill="#222222"/>
</svg>
