<svg width="72" height="20" viewBox="0 0 72 20" fill="none" xmlns="http://www.w3.org/2000/svg">
<path fill-rule="evenodd" clip-rule="evenodd" d="M23.4948 3.82715L19.2317 14.3511H21.3633L24.2054 6.72532L27.758 14.3511H38.1791L33.2054 3.82715H23.4948ZM28.9755 6.69731H30.0643L33.5412 14.3511H32.4524L28.9755 6.69731Z" fill="#222222"/>
<path d="M4.87421 14.5461C3.93253 14.5461 3.09032 14.3519 2.34758 13.9634C1.61811 13.575 1.04116 12.9723 0.616737 12.1552C0.205579 11.3382 0 10.2934 0 9.02098C0 7.69495 0.218842 6.61672 0.656526 5.78628C1.09421 4.95585 1.68442 4.34641 2.42716 3.95798C3.18316 3.56955 4.03863 3.37533 4.99358 3.37533C5.53737 3.37533 6.06126 3.43561 6.56526 3.55615C7.06926 3.66331 7.48042 3.79725 7.79874 3.95798L7.26158 5.42464C6.94326 5.30409 6.5719 5.19024 6.14747 5.08309C5.72305 4.97594 5.32516 4.92236 4.95379 4.92236C4.23758 4.92236 3.64737 5.07639 3.18316 5.38446C2.71895 5.69253 2.37411 6.14793 2.14863 6.75067C1.92316 7.3534 1.81042 8.10348 1.81042 9.00089C1.81042 9.85811 1.92316 10.5881 2.14863 11.1908C2.37411 11.7936 2.71232 12.249 3.16326 12.557C3.61421 12.8651 4.17789 13.0191 4.85432 13.0191C5.43789 13.0191 5.94853 12.9589 6.38621 12.8383C6.83716 12.7178 7.24832 12.5704 7.61969 12.3963V13.9634C7.26158 14.1509 6.86368 14.2916 6.426 14.3853C6.00158 14.4925 5.48432 14.5461 4.87421 14.5461Z" fill="#222222"/>
<path d="M14.1943 3.39542C15.4941 3.39542 16.4556 3.6834 17.079 4.25935C17.7024 4.8353 18.0141 5.7528 18.0141 7.01185V14.3452H16.7408L16.4026 12.8182H16.323C16.018 13.2067 15.6996 13.5348 15.3681 13.8027C15.0497 14.0572 14.6784 14.2447 14.254 14.3653C13.8428 14.4858 13.3388 14.5461 12.742 14.5461C12.1053 14.5461 11.5284 14.4322 11.0111 14.2045C10.5071 13.9768 10.1092 13.6286 9.81743 13.1598C9.52564 12.6776 9.37975 12.0749 9.37975 11.3516C9.37975 10.28 9.79754 9.45629 10.6331 8.88034C11.4687 8.291 12.7552 7.96953 14.4927 7.91596L16.3031 7.85568V7.21277C16.3031 6.31536 16.1108 5.69253 15.7262 5.34428C15.3415 4.99603 14.7977 4.8219 14.0948 4.8219C13.5377 4.8219 13.0072 4.90897 12.5032 5.08309C11.9992 5.24382 11.5284 5.43134 11.0907 5.64565L10.5535 4.31962C11.0177 4.06513 11.5682 3.85083 12.2048 3.6767C12.8414 3.48918 13.5046 3.39542 14.1943 3.39542ZM14.7115 9.14153C13.3852 9.1951 12.4634 9.40941 11.9462 9.78445C11.4422 10.1595 11.1902 10.6886 11.1902 11.3717C11.1902 11.9744 11.3692 12.4164 11.7273 12.6977C12.0987 12.979 12.5695 13.1196 13.1399 13.1196C14.0417 13.1196 14.7911 12.8718 15.388 12.3762C15.9848 11.8672 16.2832 11.0904 16.2832 10.0456V9.08125L14.7115 9.14153Z" fill="#222222"/>
<path d="M44.2854 3.37533C45.5985 3.37533 46.6529 3.83743 47.4487 4.76163C48.2577 5.68583 48.6623 7.07882 48.6623 8.94061C48.6623 10.1595 48.4766 11.1908 48.1052 12.0347C47.7471 12.8651 47.2365 13.4946 46.5733 13.9232C45.9234 14.3385 45.1542 14.5461 44.2655 14.5461C43.7217 14.5461 43.2376 14.4724 42.8132 14.3251C42.3888 14.1777 42.0241 13.9902 41.719 13.7625C41.4272 13.5214 41.1752 13.2602 40.963 12.979H40.8436C40.8702 13.2067 40.8967 13.4946 40.9232 13.8429C40.9497 14.1911 40.963 14.4925 40.963 14.747V19.1671H39.2123V3.57625H40.6447L40.8834 5.04291H40.963C41.1752 4.73484 41.4272 4.45356 41.719 4.19908C42.0241 3.94459 42.3822 3.74367 42.7933 3.59634C43.2177 3.449 43.7151 3.37533 44.2854 3.37533ZM43.9671 4.86209C43.2509 4.86209 42.674 5.00273 42.2363 5.284C41.7986 5.55189 41.4803 5.96041 41.2813 6.50957C41.0824 7.05873 40.9763 7.75523 40.963 8.59906V8.94061C40.963 9.82463 41.0559 10.5747 41.2415 11.1908C41.4272 11.807 41.7389 12.2758 42.1766 12.5972C42.6275 12.9187 43.2376 13.0794 44.0069 13.0794C44.6568 13.0794 45.1873 12.8986 45.5985 12.537C46.0229 12.1753 46.3346 11.6864 46.5335 11.0703C46.7457 10.4408 46.8518 9.72417 46.8518 8.92052C46.8518 7.68826 46.6131 6.70379 46.1356 5.96711C45.6714 5.23043 44.9486 4.86209 43.9671 4.86209Z" fill="#222222"/>
<path d="M62.0201 9.28217C62.0201 10.2733 61.8211 11.1707 61.4232 11.9744C61.0254 12.7647 60.4152 13.3942 59.5929 13.863C58.7839 14.3184 57.7494 14.5461 56.4894 14.5461C54.7254 14.5461 53.3791 14.0639 52.4507 13.0995C51.5356 12.1217 51.078 10.8359 51.078 9.24198V0H52.8685V9.30226C52.8685 10.4676 53.1736 11.3717 53.7837 12.0146C54.407 12.6575 55.3421 12.979 56.5888 12.979C57.4509 12.979 58.1473 12.8249 58.6778 12.5169C59.2216 12.1954 59.6195 11.7601 59.8715 11.2109C60.1235 10.6484 60.2495 10.0055 60.2495 9.28217V0H62.0201V9.28217Z" fill="#222222"/>
<path d="M72 11.3717C72 12.0682 71.8276 12.6508 71.4827 13.1196C71.1379 13.5884 70.6472 13.9433 70.0105 14.1844C69.3739 14.4255 68.6179 14.5461 67.7425 14.5461C66.9998 14.5461 66.3565 14.4858 65.8127 14.3653C65.2822 14.2447 64.8114 14.0773 64.4002 13.863V12.2557C64.8246 12.47 65.3353 12.6709 65.9321 12.8584C66.5422 13.0325 67.159 13.1196 67.7823 13.1196C68.671 13.1196 69.3142 12.979 69.7121 12.6977C70.11 12.403 70.309 12.0146 70.309 11.5324C70.309 11.2645 70.236 11.0234 70.0901 10.8091C69.9442 10.5948 69.679 10.3805 69.2943 10.1662C68.923 9.95187 68.3858 9.71078 67.6828 9.44289C66.9932 9.17501 66.403 8.90713 65.9122 8.63924C65.4215 8.37136 65.0435 8.0499 64.7782 7.67486C64.5129 7.29983 64.3803 6.81764 64.3803 6.22829C64.3803 5.31749 64.7451 4.61429 65.4745 4.11871C66.2173 3.62313 67.1855 3.37533 68.3792 3.37533C69.0291 3.37533 69.6325 3.4423 70.1896 3.57625C70.7599 3.69679 71.2904 3.87092 71.7812 4.09862L71.1843 5.50501C70.8925 5.37107 70.5808 5.25722 70.2493 5.16346C69.9309 5.0563 69.606 4.97594 69.2744 4.92236C68.9428 4.85539 68.6046 4.8219 68.2598 4.8219C67.5436 4.8219 66.9932 4.94245 66.6085 5.18355C66.2372 5.41125 66.0515 5.72601 66.0515 6.12784C66.0515 6.42251 66.1377 6.677 66.3101 6.8913C66.4825 7.09222 66.7677 7.29313 67.1656 7.49404C67.5767 7.68156 68.1205 7.90926 68.797 8.17715C69.4734 8.43163 70.0503 8.69282 70.5278 8.9607C71.0053 9.22859 71.37 9.55674 71.622 9.94518C71.874 10.3202 72 10.7957 72 11.3717Z" fill="#222222"/>
</svg>
