<svg width="277" height="75" viewBox="0 0 277 75" fill="none" xmlns="http://www.w3.org/2000/svg">
<path fill-rule="evenodd" clip-rule="evenodd" d="M90.44 15.3337L74.0543 55.7833H82.2471L93.1709 26.473L106.826 55.7833H124.869L124.869 55.7834H129.054L129.054 55.7833H146.88L127.763 15.3337H90.44ZM129.054 55.7833L115.69 26.3655H111.505L124.869 55.7833H129.054Z" fill="white"/>
<path d="M18.8703 56.5337C15.2509 56.5337 12.0138 55.7872 9.15904 54.2942C6.35527 52.8013 4.13774 50.4846 2.50645 47.3443C0.926141 44.2039 0.135986 40.1884 0.135986 35.2976C0.135986 30.201 0.977118 26.0567 2.65938 22.8649C4.34165 19.6731 6.61015 17.3307 9.4649 15.8377C12.3706 14.3448 15.6587 13.5983 19.3291 13.5983C21.4192 13.5983 23.4328 13.8299 25.3699 14.2933C27.3071 14.7051 28.8874 15.2199 30.1109 15.8377L28.0463 21.4749C26.8228 21.0116 25.3954 20.574 23.7641 20.1621C22.1329 19.7503 20.6035 19.5444 19.1762 19.5444C16.4234 19.5444 14.1548 20.1364 12.3706 21.3205C10.5864 22.5045 9.26099 24.2549 8.39437 26.5716C7.52775 28.8882 7.09444 31.7712 7.09444 35.2204C7.09444 38.5152 7.52775 41.3209 8.39437 43.6376C9.26099 45.9543 10.5609 47.7046 12.2942 48.8887C14.0274 50.0728 16.194 50.6648 18.7938 50.6648C21.0368 50.6648 22.9995 50.4331 24.6817 49.9698C26.415 49.5065 27.9953 48.9402 29.4227 48.2709V54.2942C28.0463 55.015 26.5169 55.5555 24.8347 55.9159C23.2034 56.3277 21.2153 56.5337 18.8703 56.5337Z" fill="white"/>
<path d="M54.6925 13.6755C59.6883 13.6755 63.3842 14.7824 65.7801 16.996C68.1761 19.2097 69.374 22.7362 69.374 27.5754V55.7614H64.4802L63.1802 49.8926H62.8744C61.7019 51.3855 60.4784 52.6468 59.204 53.6764C57.9805 54.6546 56.5532 55.3753 54.9219 55.8387C53.3416 56.302 51.4044 56.5337 49.1104 56.5337C46.6635 56.5337 44.446 56.0961 42.4578 55.2209C40.5207 54.3457 38.9913 53.0072 37.8698 51.2053C36.7483 49.352 36.1876 47.0354 36.1876 44.2554C36.1876 40.1369 37.7934 36.9708 41.005 34.7571C44.2166 32.4919 49.1614 31.2564 55.8395 31.0504L62.7979 30.8188V28.3477C62.7979 24.8984 62.0587 22.5045 60.5804 21.166C59.102 19.8275 57.012 19.1583 54.3101 19.1583C52.1691 19.1583 50.13 19.4929 48.1928 20.1621C46.2557 20.7799 44.446 21.5007 42.7637 22.3244L40.6991 17.2277C42.4833 16.2496 44.5989 15.4259 47.0458 14.7566C49.4927 14.0359 52.0416 13.6755 54.6925 13.6755ZM56.6806 35.761C51.5828 35.9669 48.0399 36.7906 46.0518 38.2321C44.1146 39.6735 43.146 41.7071 43.146 44.3326C43.146 46.6493 43.8342 48.3481 45.2106 49.4292C46.638 50.5103 48.4477 51.0509 50.6397 51.0509C54.1062 51.0509 56.9865 50.0985 59.2805 48.1937C61.5745 46.2374 62.7215 43.2515 62.7215 39.236V35.5293L56.6806 35.761Z" fill="white"/>
<path d="M170.349 13.5983C175.396 13.5983 179.449 15.3744 182.508 18.9266C185.617 22.4788 187.172 27.8329 187.172 34.9887C187.172 39.6735 186.458 43.6376 185.031 46.8809C183.655 50.0728 181.692 52.4924 179.143 54.1398C176.645 55.7357 173.689 56.5337 170.273 56.5337C168.183 56.5337 166.322 56.2505 164.691 55.6842C163.06 55.1179 161.658 54.3972 160.485 53.522C159.364 52.5953 158.395 51.5915 157.58 50.5103H157.121C157.223 51.3855 157.325 52.4924 157.427 53.8309C157.529 55.1694 157.58 56.3277 157.58 57.3059V74.2947H150.851V14.3705H156.356L157.274 20.0077H157.58C158.395 18.8236 159.364 17.7425 160.485 16.7644C161.658 15.7862 163.034 15.014 164.615 14.4477C166.246 13.8814 168.157 13.5983 170.349 13.5983ZM169.126 19.3127C166.373 19.3127 164.156 19.8533 162.473 20.9344C160.791 21.964 159.568 23.5342 158.803 25.6449C158.038 27.7556 157.631 30.4327 157.58 33.676V34.9887C157.58 38.3865 157.936 41.2695 158.65 43.6376C159.364 46.0057 160.562 47.8076 162.244 49.0431C163.977 50.2787 166.322 50.8965 169.279 50.8965C171.777 50.8965 173.816 50.2015 175.396 48.8115C177.028 47.4215 178.226 45.5424 178.99 43.1743C179.806 40.7546 180.214 38.0004 180.214 34.9115C180.214 30.1752 179.296 26.3914 177.461 23.5599C175.677 20.7284 172.898 19.3127 169.126 19.3127Z" fill="white"/>
<path d="M238.514 36.3015C238.514 40.1111 237.749 43.5604 236.22 46.6493C234.69 49.6866 232.345 52.1063 229.185 53.9081C226.075 55.6585 222.099 56.5337 217.256 56.5337C210.476 56.5337 205.302 54.6803 201.733 50.9737C198.216 47.2155 196.457 42.2733 196.457 36.1471V0.625H203.339V36.3787C203.339 40.8576 204.512 44.3326 206.857 46.8037C209.252 49.2748 212.846 50.5103 217.638 50.5103C220.952 50.5103 223.628 49.9183 225.667 48.7342C227.757 47.4987 229.287 45.8255 230.255 43.7148C231.224 41.5526 231.708 39.0815 231.708 36.3015V0.625H238.514V36.3015Z" fill="white"/>
<path d="M276.872 44.3326C276.872 47.0096 276.209 49.2491 274.884 51.0509C273.558 52.8527 271.672 54.217 269.225 55.1437C266.778 56.0703 263.873 56.5337 260.508 56.5337C257.653 56.5337 255.181 56.302 253.091 55.8387C251.052 55.3753 249.242 54.7318 247.662 53.9081V47.7304C249.293 48.5541 251.256 49.3263 253.55 50.047C255.895 50.7163 258.265 51.0509 260.661 51.0509C264.077 51.0509 266.549 50.5103 268.078 49.4292C269.608 48.2967 270.372 46.8037 270.372 44.9504C270.372 43.9207 270.092 42.9941 269.531 42.1704C268.97 41.3467 267.951 40.523 266.473 39.6993C265.045 38.8756 262.981 37.9489 260.279 36.9193C257.628 35.8897 255.359 34.86 253.473 33.8304C251.587 32.8008 250.134 31.5652 249.115 30.1238C248.095 28.6823 247.585 26.829 247.585 24.5638C247.585 21.0631 248.987 18.3603 251.791 16.4555C254.646 14.5507 258.367 13.5983 262.955 13.5983C265.453 13.5983 267.773 13.8557 269.914 14.3705C272.106 14.8338 274.145 15.5031 276.031 16.3783L273.737 21.7838C272.615 21.269 271.417 20.8314 270.143 20.471C268.919 20.0592 267.671 19.7503 266.396 19.5444C265.122 19.287 263.822 19.1583 262.496 19.1583C259.744 19.1583 257.628 19.6216 256.15 20.5483C254.722 21.4234 254.009 22.6332 254.009 24.1777C254.009 25.3103 254.34 26.2884 255.003 27.1121C255.665 27.8843 256.761 28.6566 258.291 29.4288C259.871 30.1495 261.961 31.0247 264.561 32.0543C267.161 33.0325 269.378 34.0363 271.213 35.066C273.049 36.0956 274.451 37.3569 275.419 38.8498C276.388 40.2913 276.872 42.1189 276.872 44.3326Z" fill="white"/>
</svg>
