<svg width="28" height="30" viewBox="0 0 28 28" fill="none" xmlns="http://www.w3.org/2000/svg">
<path d="M5.81969 11.4864L6.56613 11.0558L6.44344 10.8432L6.2271 10.7271L5.81969 11.4864ZM10.7381 7.41913L9.91548 7.67578L10.2858 8.86267L11.2672 8.09935L10.7381 7.41913ZM10.8939 7.29801L11.3281 6.55365L10.8247 6.26004L10.3648 6.61778L10.8939 7.29801ZM23.4297 14.6106L23.8639 13.8662L23.4297 14.6106ZM23.6849 16.3933L24.3105 16.9859V16.9859L23.6849 16.3933ZM15.4004 25.1381L16.0259 25.7307L16.0259 25.7307L15.4004 25.1381ZM13.571 24.922L14.3174 24.4914H14.3174L13.571 24.922ZM6.2271 10.7271C5.41256 10.2901 4.86175 9.43219 4.86175 8.44699H3.13825C3.13825 10.0922 4.06058 11.5206 5.41229 12.2458L6.2271 10.7271ZM4.86175 8.44699C4.86175 7.0192 6.0192 5.86175 7.44699 5.86175V4.13825C5.06734 4.13825 3.13825 6.06734 3.13825 8.44699H4.86175ZM7.44699 5.86175C8.60499 5.86175 9.58727 6.62375 9.91548 7.67578L11.5608 7.16248C11.0144 5.41111 9.38045 4.13825 7.44699 4.13825V5.86175ZM11.2672 8.09935L11.4229 7.97823L10.3648 6.61778L10.2091 6.73891L11.2672 8.09935ZM10.4596 8.04236L22.9955 15.3549L23.8639 13.8662L11.3281 6.55365L10.4596 8.04236ZM22.9955 15.3549C23.1554 15.4482 23.1866 15.6662 23.0593 15.8006L24.3105 16.9859C25.2018 16.0451 24.9834 14.5192 23.8639 13.8662L22.9955 15.3549ZM23.0593 15.8006L14.7748 24.5454L16.0259 25.7307L24.3105 16.9859L23.0593 15.8006ZM14.7748 24.5454C14.6426 24.6849 14.4134 24.6578 14.3174 24.4914L12.8246 25.3527C13.4967 26.5177 15.1009 26.7071 16.0259 25.7307L14.7748 24.5454ZM14.3174 24.4914L6.56613 11.0558L5.07326 11.9171L12.8246 25.3527L14.3174 24.4914Z" fill="#666666"/>
<path d="M10.8938 7.2981L6.29785 11.8941" stroke="#666666" stroke-width="1.72349" stroke-linecap="round"/>
<path d="M8.02148 10.7449L15.49 19.9368" stroke="#666666" stroke-width="1.72349" stroke-linecap="round"/>
<path d="M9.17041 9.02148L18.5081 16.1919" stroke="#666666" stroke-width="1.72349" stroke-linecap="round"/>
</svg>
