<svg width="28" height="30" viewBox="0 0 28 28" fill="none" xmlns="http://www.w3.org/2000/svg">
<path d="M23.6166 17.8995C23.2165 17.8995 23.0437 17.7289 22.6589 17.309C22.2107 16.8193 21.5984 16.1501 20.4112 16.1501C19.2239 16.1501 18.6115 16.8193 18.1634 17.309C17.7786 17.729 17.6081 17.8995 17.2078 17.8995C16.8078 17.8995 16.635 17.7289 16.2502 17.309C15.8019 16.8193 15.1875 16.1501 14.0024 16.1501C12.8173 16.1501 12.2028 16.8193 11.7547 17.309C11.3698 17.729 11.197 17.8995 10.797 17.8995C10.3969 17.8995 10.2219 17.7289 9.83482 17.309C9.39754 16.8193 8.77217 16.1501 7.58477 16.1501C6.39752 16.1501 5.78512 16.8193 5.33471 17.309C4.94989 17.729 4.77709 17.8995 4.37472 17.8995C4.06219 17.8995 3.77348 18.0662 3.61714 18.3369C3.46095 18.6075 3.46095 18.9409 3.61714 19.2115C3.77348 19.482 4.06219 19.6487 4.37472 19.6487C5.56197 19.6487 6.17652 18.9796 6.62477 18.492C7.00959 18.0699 7.18239 17.8994 7.58477 17.8994C7.98714 17.8994 8.1598 18.07 8.54691 18.492C8.99516 18.9796 9.60956 19.6487 10.797 19.6487C11.9841 19.6487 12.5963 18.9775 13.0446 18.4898C13.4294 18.0699 13.6022 17.8994 14.0022 17.8994C14.4023 17.8994 14.5751 18.07 14.9599 18.4898C15.4082 18.9796 16.0204 19.6487 17.2077 19.6487C18.3951 19.6487 19.0073 18.9775 19.4622 18.4898C19.847 18.0699 20.0198 17.8994 20.4198 17.8994C20.8199 17.8994 20.9927 18.07 21.3775 18.4898C21.8148 18.9796 22.438 19.6487 23.6253 19.6487H23.6254C23.9378 19.6487 24.2267 19.482 24.3829 19.2115C24.539 18.9409 24.539 18.6075 24.3829 18.3369C24.2267 18.0662 23.9378 17.8995 23.6254 17.8995H23.6166Z" fill="#666666"/>
<path d="M23.6166 22.2723C23.2165 22.2723 23.0437 22.1017 22.6589 21.6818C22.2107 21.1921 21.5984 20.5229 20.4112 20.5229C19.2239 20.5229 18.6115 21.1921 18.1634 21.6818C17.7786 22.1018 17.6081 22.2723 17.2078 22.2723C16.8078 22.2723 16.635 22.1017 16.2502 21.6818C15.8019 21.1921 15.1875 20.5229 14.0024 20.5229C12.8173 20.5229 12.2028 21.1921 11.7547 21.6818C11.3698 22.1018 11.197 22.2723 10.797 22.2723C10.3969 22.2723 10.2219 22.1017 9.83482 21.6818C9.39754 21.1921 8.77217 20.5229 7.58477 20.5229C6.39752 20.5229 5.78512 21.1921 5.33471 21.6818C4.94989 22.1018 4.77709 22.2723 4.37472 22.2723C4.06219 22.2723 3.77348 22.439 3.61714 22.7097C3.46095 22.9803 3.46095 23.3137 3.61714 23.5843C3.77348 23.8549 4.06219 24.0216 4.37472 24.0216C5.56197 24.0216 6.17652 23.3524 6.62477 22.8648C7.00959 22.4427 7.18239 22.2722 7.58477 22.2722C7.98714 22.2722 8.1598 22.4428 8.54691 22.8648C8.99516 23.3524 9.60956 24.0216 10.797 24.0216C11.9841 24.0216 12.5963 23.3503 13.0446 22.8627C13.4294 22.4427 13.6022 22.2722 14.0022 22.2722C14.4023 22.2722 14.5751 22.4428 14.9599 22.8627C15.4082 23.3524 16.0204 24.0216 17.2077 24.0216C18.3951 24.0216 19.0073 23.3503 19.4622 22.8627C19.847 22.4427 20.0198 22.2722 20.4198 22.2722C20.8199 22.2722 20.9927 22.4428 21.3775 22.8627C21.8148 23.3524 22.438 24.0216 23.6253 24.0216H23.6254C23.9378 24.0216 24.2267 23.8548 24.3829 23.5843C24.539 23.3137 24.539 22.9803 24.3829 22.7097C24.2267 22.439 23.9378 22.2723 23.6254 22.2723H23.6166Z" fill="#666666"/>
<path d="M9.6227 15.2449C9.85469 15.2449 10.0771 15.1527 10.2412 14.9888C10.4052 14.8247 10.4973 14.6023 10.4973 14.3703V12.621H17.4944V14.3703C17.4944 14.6828 17.6611 14.9715 17.9317 15.1277C18.2023 15.284 18.5357 15.284 18.8063 15.1277C19.0768 14.9715 19.2435 14.6828 19.2435 14.3703V5.62387C19.2435 5.39188 19.3358 5.16948 19.4998 5.00537C19.6637 4.84141 19.8863 4.74928 20.1183 4.74928C20.4308 4.74928 20.7195 4.58257 20.8757 4.31184C21.0319 4.04126 21.0319 3.70783 20.8757 3.43728C20.7195 3.1667 20.4308 3 20.1183 3C19.4223 3 18.755 3.27637 18.2628 3.76859C17.7707 4.26065 17.4944 4.92792 17.4944 5.62392V6.49848H10.4972V5.62392C10.4972 5.39193 10.5895 5.16954 10.7535 5.00543C10.9174 4.84146 11.14 4.74934 11.372 4.74934C11.6845 4.74934 11.9732 4.58263 12.1294 4.3119C12.2856 4.04132 12.2856 3.70789 12.1294 3.43734C11.9732 3.16676 11.6845 3.00005 11.372 3.00005C10.676 3.00005 10.0087 3.27643 9.51648 3.76864C9.02442 4.26071 8.74805 4.92797 8.74805 5.62398V14.3704C8.74805 14.6024 8.84017 14.8248 9.00414 14.9889C9.16825 15.1528 9.39063 15.245 9.62263 15.245L9.6227 15.2449ZM17.4945 8.24773V10.8716H10.4973V8.24773H17.4945Z" fill="#666666"/>
</svg>
