<svg width="28" height="28" viewBox="0 0 28 28" fill="none" xmlns="http://www.w3.org/2000/svg">
<path fill-rule="evenodd" clip-rule="evenodd" d="M2.2251 7.0001C2.2251 6.01979 3.01979 5.2251 4.0001 5.2251H24.0001C24.9804 5.2251 25.7751 6.01979 25.7751 7.0001V12.0001V16.0001V21.0001C25.7751 21.9804 24.9804 22.7751 24.0001 22.7751H4.0001C3.01979 22.7751 2.2251 21.9804 2.2251 21.0001V16.0001V12.0001V7.0001ZM24.2251 7.0001V10.2392C24.1514 10.2299 24.0763 10.2251 24.0001 10.2251H22.0001C21.0198 10.2251 20.2251 11.0198 20.2251 12.0001V16.0001C20.2251 16.9804 21.0198 17.7751 22.0001 17.7751H24.0001C24.0763 17.7751 24.1514 17.7703 24.2251 17.761V21.0001C24.2251 21.1244 24.1244 21.2251 24.0001 21.2251H14.7751V17.6955C16.4882 17.338 17.7751 15.8193 17.7751 14.0001C17.7751 12.1809 16.4882 10.6622 14.7751 10.3047V6.7751H24.0001C24.1244 6.7751 24.2251 6.87583 24.2251 7.0001ZM13.2251 10.3047V6.7751H4.0001C3.87583 6.7751 3.7751 6.87583 3.7751 7.0001V10.2392C3.84878 10.2299 3.92388 10.2251 4.0001 10.2251H6.0001C6.9804 10.2251 7.7751 11.0198 7.7751 12.0001V16.0001C7.7751 16.9804 6.9804 17.7751 6.0001 17.7751H4.0001C3.92388 17.7751 3.84878 17.7703 3.7751 17.761V21.0001C3.7751 21.1244 3.87583 21.2251 4.0001 21.2251H13.2251V17.6955C11.512 17.338 10.2251 15.8193 10.2251 14.0001C10.2251 12.1809 11.512 10.6622 13.2251 10.3047ZM13.2251 16.0864C12.3784 15.7718 11.7751 14.9564 11.7751 14.0001C11.7751 13.0438 12.3784 12.2284 13.2251 11.9138V16.0864ZM14.7751 16.0864V11.9138C15.6218 12.2284 16.2251 13.0438 16.2251 14.0001C16.2251 14.9564 15.6218 15.7718 14.7751 16.0864ZM24.0001 11.7751C24.1244 11.7751 24.2251 11.8758 24.2251 12.0001V16.0001C24.2251 16.1244 24.1244 16.2251 24.0001 16.2251H22.0001C21.8758 16.2251 21.7751 16.1244 21.7751 16.0001V12.0001C21.7751 11.8758 21.8758 11.7751 22.0001 11.7751H24.0001ZM3.7751 12.0001V16.0001C3.7751 16.1244 3.87583 16.2251 4.0001 16.2251H6.0001C6.12436 16.2251 6.2251 16.1244 6.2251 16.0001V12.0001C6.2251 11.8758 6.12436 11.7751 6.0001 11.7751H4.0001C3.87583 11.7751 3.7751 11.8758 3.7751 12.0001Z" fill="#666666"/>
</svg>
