<svg width="28" height="30" viewBox="0 0 28 28" fill="none" xmlns="http://www.w3.org/2000/svg">
<path d="M13.9963 15.1999C16.5442 15.1999 18.6098 12.6927 18.6098 9.59995C18.6098 6.50718 16.5442 4 13.9963 4C11.4483 4 9.38281 6.50718 9.38281 9.59995C9.38281 12.6927 11.4483 15.1999 13.9963 15.1999Z" stroke="#666666" stroke-width="1.55" stroke-linecap="round" stroke-linejoin="round"/>
<path d="M13.9961 6.1001C15.0879 6.1001 16.3028 7.59808 16.3028 9.60007" stroke="#666666" stroke-width="1.55" stroke-linecap="round" stroke-linejoin="round"/>
<path d="M17.7404 6.09975C18.1885 5.79296 18.7057 5.58047 19.2548 5.47758C19.8039 5.3747 20.3713 5.38398 20.916 5.50476C23.315 6.10675 24.5837 9.04672 23.7379 12.0847C22.8921 15.1227 20.2547 17.0897 17.8404 16.4947C17.0397 16.2789 16.3431 15.8224 15.8643 15.1997" stroke="#666666" stroke-width="1.55" stroke-linecap="round" stroke-linejoin="round"/>
<path d="M13.9961 15.2004V25.0004" stroke="#666666" stroke-width="1.55" stroke-linecap="round" stroke-linejoin="round"/>
<path d="M17.8407 16.6001L13.9961 25" stroke="#666666" stroke-width="1.55" stroke-linecap="round" stroke-linejoin="round"/>
<path d="M10.2521 6.09975C9.80407 5.79296 9.28685 5.58047 8.73772 5.47758C8.18859 5.3747 7.62123 5.38398 7.07651 5.50476C4.6852 6.09975 3.41649 9.04672 4.26229 12.0847C5.1081 15.1227 7.73778 17.0897 10.1522 16.4947C10.9528 16.2789 11.6494 15.8224 12.1283 15.1997" stroke="#666666" stroke-width="1.55" stroke-linecap="round" stroke-linejoin="round"/>
<path d="M10.1514 16.6001L13.9959 25" stroke="#666666" stroke-width="1.55" stroke-linecap="round" stroke-linejoin="round"/>
</svg>
