<svg width="28" height="30" viewBox="0 0 28 28" fill="none" xmlns="http://www.w3.org/2000/svg">
<g clip-path="url(#clip0_1138_4411)">
<path d="M6.125 14.875V9.1875C6.125 8.60734 6.35547 8.05094 6.7657 7.6407C7.17594 7.23047 7.73234 7 8.3125 7C8.89266 7 9.44906 7.23047 9.8593 7.6407C10.2695 8.05094 10.5 8.60734 10.5 9.1875" stroke="#666666" stroke-width="1.75" stroke-linecap="round" stroke-linejoin="round"/>
<path d="M21.875 14H14.875V19.25H21.875V14Z" stroke="#666666" stroke-width="1.75" stroke-linecap="round" stroke-linejoin="round"/>
<path d="M21.875 14.875H25.375C25.6071 14.875 25.8296 14.9672 25.9937 15.1313C26.1578 15.2954 26.25 15.5179 26.25 15.75V19.25C26.25 20.6424 25.6969 21.9777 24.7123 22.9623C23.7277 23.9469 22.3924 24.5 21 24.5H7C5.60761 24.5 4.27226 23.9469 3.28769 22.9623C2.30312 21.9777 1.75 20.6424 1.75 19.25V15.75C1.75 15.5179 1.84219 15.2954 2.00628 15.1313C2.17038 14.9672 2.39294 14.875 2.625 14.875H14.875" stroke="#666666" stroke-width="1.75" stroke-linecap="round" stroke-linejoin="round"/>
<path d="M15.8081 4.66655C16.0115 4.86971 16.1728 5.11097 16.2829 5.37653C16.393 5.64208 16.4496 5.92674 16.4496 6.21421C16.4496 6.50168 16.393 6.78633 16.2829 7.05189C16.1728 7.31745 16.0115 7.55871 15.8081 7.76186C15.6047 7.96502 15.4433 8.20628 15.3332 8.47184C15.2232 8.7374 15.1665 9.02205 15.1665 9.30952C15.1665 9.59699 15.2232 9.88164 15.3333 10.1472C15.4433 10.4128 15.6047 10.654 15.8081 10.8572" stroke="#666666" stroke-width="1.51667" stroke-linecap="round" stroke-linejoin="round"/>
<path d="M20.1831 4.66655C20.3865 4.86971 20.5478 5.11097 20.6579 5.37653C20.768 5.64208 20.8246 5.92674 20.8246 6.21421C20.8246 6.50168 20.768 6.78633 20.6579 7.05189C20.5478 7.31745 20.3865 7.55871 20.1831 7.76186C19.9797 7.96502 19.8183 8.20628 19.7082 8.47184C19.5982 8.7374 19.5415 9.02205 19.5415 9.30952C19.5415 9.59699 19.5982 9.88164 19.7083 10.1472C19.8183 10.4128 19.9797 10.654 20.1831 10.8572" stroke="#666666" stroke-width="1.51667" stroke-linecap="round" stroke-linejoin="round"/>
</g>
<defs>
<clipPath id="clip0_1138_4411">
<rect width="28" height="28" fill="white"/>
</clipPath>
</defs>
</svg>
