<svg width="28" height="30" viewBox="0 0 28 28" fill="none" xmlns="http://www.w3.org/2000/svg">
<rect x="2.66446" y="22.8638" width="23.2944" height="3.8824" rx="1.08707" transform="rotate(-25.7112 2.66446 22.8638)" stroke="#666666" stroke-width="1.55296"/>
<rect x="24.0407" y="25.7718" width="23.2944" height="3.8824" rx="1.08707" transform="rotate(-157.711 24.0407 25.7718)" stroke="#666666" stroke-width="1.55296"/>
<path d="M8.76573 8.70824L8.76331 8.71006L8.75936 8.71305L8.74896 8.72103C8.74096 8.72722 8.73081 8.73519 8.71869 8.74495C8.69446 8.76445 8.6623 8.79112 8.6235 8.82504C8.54595 8.89284 8.44155 8.98992 8.32083 9.11701C8.07969 9.37086 7.77103 9.74705 7.48186 10.2512C6.89849 11.2682 6.40826 12.784 6.68382 14.8117C6.95566 16.8123 7.79573 18.4851 9.2174 19.6514C10.634 20.8135 12.5524 21.4109 14.8718 21.4109C17.2641 21.4109 19.173 20.5145 20.4373 18.9759C21.69 17.4515 22.249 15.3728 22.1152 13.1001C21.987 10.9198 20.7994 9.26573 19.7505 7.80454C19.6492 7.66345 19.5492 7.52416 19.4516 7.38637C18.3072 5.7714 17.4037 4.28272 17.6233 2.20056C17.6456 1.98871 17.577 1.77732 17.4345 1.61898C17.2919 1.46065 17.0889 1.37024 16.8758 1.37024C16.4931 1.37024 16.0551 1.4887 15.631 1.66683C15.1939 1.85044 14.7199 2.11927 14.2556 2.46941C13.329 3.16827 12.4026 4.22166 11.9081 5.63048C11.4148 7.03583 11.6647 8.37536 12.0261 9.34965C12.2634 9.98945 12.006 10.622 11.6186 10.8059C11.2761 10.9686 10.8662 10.8322 10.6895 10.4966L9.8805 8.96018C9.77816 8.76578 9.59587 8.62591 9.38161 8.57736C9.16735 8.52881 8.94188 8.57697 8.76573 8.70824Z" fill="white"/>
<path d="M15.1607 3.66922C15.4845 3.42498 15.8057 3.23741 16.0931 3.10527C16.1799 5.23672 17.222 6.83946 18.2251 8.25513C18.3169 8.38461 18.408 8.51223 18.4979 8.63836C19.5835 10.16 20.5133 11.4631 20.6147 13.1881C20.7316 15.174 20.2363 16.8529 19.276 18.0215C18.3274 19.1758 16.8643 19.9077 14.8718 19.9077C12.8063 19.9077 11.254 19.3778 10.1707 18.4891C9.09247 17.6045 8.40335 16.303 8.17319 14.6092C7.94673 12.9428 8.35001 11.7584 8.78566 10.9988C8.87134 10.8494 8.95882 10.7156 9.04387 10.5972L9.35951 11.1966C9.91168 12.2453 11.1927 12.6719 12.2633 12.1636C13.5716 11.5423 13.8508 9.94698 13.4354 8.8268C13.1447 8.04315 12.99 7.08623 13.3263 6.12813C13.7034 5.05383 14.4194 4.22839 15.1607 3.66922ZM8.76573 8.70806L8.76331 8.70987L8.75936 8.71287L8.74896 8.72085C8.74096 8.72704 8.73081 8.735 8.71869 8.74476C8.69446 8.76426 8.6623 8.79094 8.6235 8.82486C8.54595 8.89266 8.44155 8.98973 8.32083 9.11683C8.07969 9.37068 7.77103 9.74687 7.48186 10.251C6.89849 11.2681 6.40826 12.7838 6.68382 14.8116C6.95566 16.8121 7.79573 18.4849 9.2174 19.6512C10.634 20.8133 12.5524 21.4108 14.8718 21.4108C17.2641 21.4108 19.173 20.5143 20.4373 18.9757C21.69 17.4513 22.249 15.3726 22.1152 13.0999C21.987 10.9197 20.7994 9.26554 19.7505 7.80436C19.6492 7.66327 19.5492 7.52398 19.4516 7.38619C18.3072 5.77122 17.4037 4.28254 17.6233 2.20037C17.6456 1.98852 17.577 1.77713 17.4345 1.6188C17.2919 1.46047 17.0889 1.37006 16.8758 1.37006C16.4931 1.37006 16.0551 1.48852 15.631 1.66665C15.1939 1.85026 14.7199 2.11909 14.2556 2.46923C13.329 3.16809 12.4026 4.22148 11.9081 5.6303C11.4148 7.03564 11.6647 8.37517 12.0261 9.34946C12.2634 9.98926 12.006 10.6218 11.6186 10.8057C11.2761 10.9685 10.8662 10.832 10.6895 10.4964L9.8805 8.95999C9.77816 8.7656 9.59586 8.62572 9.38161 8.57717C9.16735 8.52863 8.94188 8.57678 8.76573 8.70806Z" fill="#666666"/>
<circle cx="14.3697" cy="15.347" r="1.55296" fill="#D9D9D9" stroke="#666666" stroke-width="1.55296"/>
</svg>
