<svg width="28" height="28" viewBox="0 0 28 28" fill="none" xmlns="http://www.w3.org/2000/svg">
<path d="M15.457 2.33303L19.1734 2.33301C19.7674 2.33301 20.3487 2.49792 20.8541 2.80894L24.0833 4.79613C24.3421 4.95538 24.4997 5.23748 24.4997 5.54134V7.29134C24.4997 8.74109 23.3244 9.91634 21.8747 9.91634H21.583V20.4711C22.7462 20.6272 23.5599 21.1181 24.0267 21.9591C24.2872 22.4285 24.3977 22.9393 24.4494 23.409C24.4998 23.8651 24.4997 24.3414 24.4997 24.7618V24.7913C24.4997 25.2746 24.1079 25.6663 23.6247 25.6663H18.9589H6.80523C4.33529 25.6663 2.33301 23.6641 2.33301 21.1942C2.33301 19.563 3.20674 18.1369 4.5075 17.3566C4.92192 17.1081 5.45938 17.2425 5.70795 17.6569C5.95652 18.0713 5.82206 18.6088 5.40765 18.8574C4.6122 19.3345 4.08301 20.203 4.08301 21.1942C4.08301 22.6975 5.30179 23.9163 6.80523 23.9163C7.17687 23.9163 7.40797 23.8193 7.56156 23.7112C7.72396 23.5969 7.85091 23.4332 7.94873 23.2359C8.04732 23.0371 8.10422 22.828 8.13545 22.6614C8.15068 22.58 8.15885 22.5141 8.16307 22.4717C8.1649 22.4533 8.16596 22.4397 8.16652 22.4315L8.16703 22.3909C8.16768 22.3514 8.16896 22.2951 8.17143 22.2239C8.17636 22.0815 8.18612 21.8788 8.2054 21.6293C8.24388 21.1317 8.32075 20.4424 8.47509 19.6728C8.77735 18.1655 9.4036 16.2099 10.7518 14.8434C11.7411 13.8408 12.2788 12.3716 12.557 10.9188C12.832 9.48252 12.833 8.17569 12.833 7.58301V4.95803C12.833 3.50896 14.0066 2.33304 15.457 2.33303ZM9.04134 22.458C9.91585 22.4872 9.91583 22.488 9.91583 22.488L9.91574 22.4908L9.91555 22.4952L9.91504 22.5069L9.91315 22.5403C9.91144 22.5669 9.90873 22.6021 9.90449 22.6448C9.89603 22.73 9.88126 22.8464 9.85548 22.9838C9.80896 23.232 9.72335 23.5665 9.56288 23.9163H18.0215C17.9151 23.3405 17.6254 22.7426 16.8388 22.3762C16.8258 22.3703 16.8131 22.364 16.8006 22.3573C16.7397 22.3254 16.5656 22.268 16.2765 22.2222C16.0082 22.1799 15.7116 22.1583 15.458 22.1583C15.3955 22.1583 15.2577 22.1602 15.1281 22.1623L14.9629 22.1649L14.8939 22.1662H14.8928C14.4095 22.1751 14.0108 21.7906 14.0019 21.3073C13.993 20.8242 14.3776 20.4253 14.8607 20.4165L14.9324 20.4152L15.1004 20.4124C15.226 20.4104 15.3789 20.4083 15.458 20.4083C15.7317 20.4083 16.0359 20.4264 16.333 20.4632V17.7946C16.333 17.3114 16.7248 16.9196 17.208 16.9196C17.6912 16.9196 18.083 17.3114 18.083 17.7946V21.0665C19.3253 21.8614 19.6859 23.0529 19.7904 23.9163H22.7351C22.7293 23.8078 22.7212 23.7028 22.71 23.6006C22.6713 23.2497 22.6002 22.995 22.4966 22.8085C22.3448 22.5349 21.9911 22.1663 20.708 22.1663C20.2248 22.1663 19.833 21.7746 19.833 21.2913V9.04134C19.833 8.5581 20.2248 8.16634 20.708 8.16634H21.8747C22.3579 8.16634 22.7497 7.77459 22.7497 7.29134V6.03028L19.9368 4.29934C19.7068 4.15773 19.443 4.08301 19.1734 4.08301L15.457 4.08303C14.9744 4.08303 14.583 4.47411 14.583 4.95803V7.56167C14.5979 7.82857 14.6903 8.05795 14.8223 8.20796C14.9402 8.34188 15.1264 8.45801 15.458 8.45801C15.7926 8.45801 15.9862 8.33978 16.1063 8.20251C16.2404 8.04929 16.333 7.81152 16.333 7.52467C16.333 7.04143 16.7248 6.64967 17.208 6.64967C17.6912 6.64967 18.083 7.04143 18.083 7.52467C18.083 8.17115 17.8762 8.83756 17.423 9.35516C16.956 9.88874 16.2746 10.208 15.458 10.208C15.094 10.208 14.7595 10.1446 14.4599 10.0284C14.4159 10.4156 14.3564 10.8262 14.2757 11.2479C13.9705 12.8416 13.3416 14.7104 11.9976 16.0726C11.0124 17.071 10.472 18.6154 10.1909 20.0169C10.0536 20.7017 9.98464 21.3189 9.9502 21.7643C9.93303 21.9864 9.92454 22.1642 9.92038 22.2845C9.91829 22.3447 9.91727 22.3903 9.9168 22.4199L9.91639 22.4517L9.91634 22.458C9.91634 22.4676 9.91614 22.4784 9.91583 22.488L9.04134 22.458ZM18.9589 25.6663L18.958 24.7913L18.9589 25.6663Z" fill="#666666"/>
</svg>
