<svg width="209" height="36" viewBox="0 0 209 36" fill="none" xmlns="http://www.w3.org/2000/svg">
<rect x="0.5" y="0.5" width="208" height="35" rx="17.5" fill="white"/>
<path d="M33.75 24.75L29.2501 20.25M30.75 16.5C30.75 19.3995 28.3995 21.75 25.5 21.75C22.6005 21.75 20.25 19.3995 20.25 16.5C20.25 13.6005 22.6005 11.25 25.5 11.25C28.3995 11.25 30.75 13.6005 30.75 16.5Z" stroke="#FA845F" stroke-width="2" stroke-linecap="round" stroke-linejoin="round"/>
<path d="M57.2812 19.2188H44.5156V20.4219H50.1406V25.3125H51.5938V20.4219H57.2812V19.2188ZM45.2344 16.9844L45.7969 18.1562C48.0625 17.7969 50.0391 16.6641 50.8984 15.0703C51.75 16.6641 53.7344 17.7969 56.0312 18.1562L56.5781 16.9844C53.9297 16.625 51.7734 15.0703 51.75 13.3438H56.0781V12.1562H45.7031V13.3438H50.0625C50.0156 15.0703 47.8438 16.625 45.2344 16.9844ZM70.3594 11.3281H68.9375V25.3281H70.3594V11.3281ZM58.1406 21.4688L59.0469 22.5781C60.4141 21.7266 61.3672 20.1641 61.8672 18.3359C62.3594 20.0234 63.2734 21.4531 64.6094 22.25L65.5 21.1562C63.5312 20.0234 62.5625 17.625 62.5625 15.2344V14.1094H64.9688V12.9062H58.5625V14.1094H61.1406V15.2344C61.1328 17.7266 60.125 20.2734 58.1406 21.4688ZM63.9375 17.5H66.1094V24.625H67.5156V11.625H66.1094V16.2812H63.9375V17.5ZM83.8281 11.3281H82.3594V13.25H79.2969V11.9688H77.8281V13.8594H74.3281V11.9688H72.8438V18.0938H79.2969V16.9375H82.3594V18.6094H83.8281V11.3281ZM74.3281 16.9062V15H77.8281V16.9062H74.3281ZM74.6719 20.3906H82.3594V21.5625H74.7031V25.1562H84.3281V23.9688H76.1875V22.6719H83.8281V19.2344H74.6719V20.3906ZM79.2969 15.7969V14.3906H82.3594V15.7969H79.2969ZM96.1562 12.25H90.6406V13.4531H94.6797C94.6328 13.9297 94.5312 14.3828 94.3828 14.8125L90 15.0781L90.2188 16.2812L93.8672 15.8906C93.1328 17.0781 91.8828 18.0469 89.9844 18.7812L90.7031 19.8906C94.5625 18.3125 96.1484 15.7031 96.1562 12.25ZM92.4844 25.1562H101.844V20.1719H92.4844V25.1562ZM93.9531 23.9531V21.3594H100.391V23.9531H93.9531ZM97.3438 19.4531H98.75V16.0156H100.438V19.5781H101.844V11.3438H100.438V14.7812H98.75V11.5938H97.3438V19.4531ZM111.953 12.4844H104.344V13.7031H105.672V17.7578C105.07 17.7656 104.492 17.7656 103.969 17.7656L104.141 18.9844C106.5 18.9844 109.828 18.9375 112.688 18.4688L112.594 17.3594C111.953 17.4375 111.289 17.5078 110.609 17.5547V13.7031H111.953V12.4844ZM105.906 22.7188C105.906 24.3672 107.703 25.3047 110.672 25.2969C113.633 25.3047 115.438 24.3672 115.438 22.7188C115.438 21.0859 113.633 20.1641 110.672 20.1719C107.703 20.1641 105.906 21.0859 105.906 22.7188ZM107.094 17.7266V13.7031H109.188V17.6484C108.484 17.6875 107.773 17.7109 107.094 17.7266ZM107.375 22.7188C107.383 21.8281 108.594 21.3203 110.672 21.3125C112.742 21.3203 113.953 21.8281 113.953 22.7188C113.953 23.6328 112.742 24.1484 110.672 24.1562C108.594 24.1484 107.383 23.6328 107.375 22.7188ZM113.859 19.875H115.344V11.3438H113.859V19.875ZM122.453 13.9062V13.5312H125.469V12.3281H117.891V13.5312H120.969V13.9219C120.961 15.8672 119.641 17.6719 117.453 18.3906L118.219 19.5781C119.898 18.9922 121.125 17.7812 121.734 16.25C122.352 17.5781 123.516 18.6328 125.109 19.1406L125.812 17.9844C123.688 17.3125 122.445 15.6875 122.453 13.9062ZM119.344 22.6719C119.344 24.3359 121.133 25.3047 124.047 25.2969C126.93 25.3047 128.688 24.3359 128.688 22.6719C128.688 21.0312 126.93 20.0703 124.047 20.0781C121.133 20.0703 119.344 21.0312 119.344 22.6719ZM120.828 22.6719C120.82 21.7578 122.023 21.2422 124.047 21.25C126.055 21.2422 127.242 21.7578 127.234 22.6719C127.242 23.6094 126.055 24.1328 124.047 24.125C122.023 24.1328 120.82 23.6094 120.828 22.6719ZM127.078 19.7344H128.562V16.0156H130.594V14.7969H128.562V11.3281H127.078V19.7344ZM148.109 22.3438H142.406V19.1094H146.578V12.4531H136.766V19.1094H140.938V22.3438H135.297V23.5781H148.109V22.3438ZM138.203 17.9375V13.6406H145.125V17.9375H138.203ZM152.875 12.375C150.781 12.3828 149.289 14.2891 149.297 17.2812C149.289 20.3047 150.781 22.2109 152.875 22.2031C154.969 22.2109 156.461 20.3047 156.469 17.2812C156.461 14.2891 154.969 12.3828 152.875 12.375ZM150.719 17.2812C150.711 15.0859 151.602 13.7109 152.875 13.7031C154.172 13.7109 155.047 15.0859 155.047 17.2812C155.047 19.5078 154.172 20.875 152.875 20.875C151.602 20.875 150.711 19.5078 150.719 17.2812ZM158.547 25.3281H160.031V18.0625H162.281V16.8125H160.031V11.3281H158.547V25.3281ZM175.766 22.3594H170.062V19.4844H174.25V12.2812H172.781V14.6875H165.906V12.2812H164.422V19.4844H168.594V22.3594H162.953V23.5938H175.766V22.3594ZM165.906 18.2812V15.8906H172.781V18.2812H165.906ZM188.422 11.3281H186.922V25.3281H188.422V11.3281ZM176.922 21.5781L177.703 22.7812C182.508 20.4766 184.25 16.9297 184.25 12.8281H177.594V14.0156H182.75C182.461 17.2812 180.641 19.8047 176.922 21.5781Z" fill="#666666"/>
<rect x="0.5" y="0.5" width="208" height="35" rx="17.5" stroke="#CCCCCC"/>
</svg>
