<svg width="149" height="36" viewBox="0 0 149 36" fill="none" xmlns="http://www.w3.org/2000/svg">
<rect x="0.5" y="0.5" width="148" height="35" rx="17.5" fill="white"/>
<g clip-path="url(#clip0_2094_8252)">
<path d="M27 21.75C29.0711 21.75 30.75 20.0711 30.75 18C30.75 15.9289 29.0711 14.25 27 14.25C24.9289 14.25 23.25 15.9289 23.25 18C23.25 20.0711 24.9289 21.75 27 21.75Z" fill="#FA845F"/>
<path d="M27 10.5V11.625M27 24.375V25.5M20.625 18H19.5M22.5 13.5L21.6749 12.6749M31.5 13.5L32.3251 12.6749M22.5 22.5L21.6749 23.3282M31.5 22.5L32.3251 23.3282M34.5 18H33.375M30.75 18C30.75 20.0711 29.0711 21.75 27 21.75C24.9289 21.75 23.25 20.0711 23.25 18C23.25 15.9289 24.9289 14.25 27 14.25C29.0711 14.25 30.75 15.9289 30.75 18Z" stroke="#FA845F" stroke-width="2" stroke-linecap="round" stroke-linejoin="round"/>
</g>
<path d="M55.5156 11.3281H54.0312V18.3438H55.5156V15.3906H57.5469V14.1406H55.5156V11.3281ZM45.1562 17.7656H46.2969C48.3594 17.7578 50.4844 17.6328 52.8438 17.1562L52.6562 15.9219C50.5 16.3516 48.5234 16.5078 46.6406 16.5156V11.9531H45.1562V17.7656ZM46.4688 20.1562H54.0312V21.4062H46.5V25.1562H56V23.9531H47.9688V22.5469H55.5156V18.9844H46.4688V20.1562ZM70.1719 11.3281H68.6719V25.3281H70.1719V11.3281ZM58.1094 21.125L59.0781 22.1406C60.0547 21.3906 60.6484 20.2188 60.9844 18.9141C61.3125 20.2734 61.9219 21.5312 62.9688 22.2969C64.0156 21.5312 64.625 20.2812 64.9531 18.9141C65.2969 20.25 65.8984 21.4453 66.9219 22.1875L67.8438 21.125C66.0938 19.8594 65.6641 17.4375 65.6719 15.4688V12.5312H64.25V15.4688C64.2422 17.0078 64.0078 18.9688 62.9688 20.3594C61.9141 18.9375 61.6797 16.9453 61.6719 15.4688V12.5312H60.2969V15.4688C60.2812 17.3828 59.8594 19.8203 58.1094 21.125ZM87.75 11.3281H86.2656V14.8906H83.6562V16.1094H86.2656V19.6562H87.75V11.3281ZM76.0781 18.3906L76.8594 19.5781C78.5312 18.9609 79.7578 17.7031 80.3672 16.1406C80.9766 17.5234 82.1328 18.6484 83.7031 19.1875L84.4688 18.0156C82.3516 17.2969 81.0859 15.5703 81.0938 13.7969V13.5H84.0938V12.2969H76.5469V13.5H79.5781V13.8125C79.5859 15.7422 78.25 17.6328 76.0781 18.3906ZM78.3281 22.6875C78.3203 24.3516 80.1172 25.3203 83.0625 25.3281C85.9922 25.3203 87.7891 24.3516 87.7969 22.6875C87.7891 21.0234 85.9922 20.0547 83.0625 20.0469C80.1172 20.0547 78.3203 21.0234 78.3281 22.6875ZM79.7969 22.6875C79.7891 21.7344 81.0078 21.1953 83.0625 21.2031C85.1016 21.1953 86.3203 21.7344 86.3281 22.6875C86.3203 23.6328 85.1016 24.1719 83.0625 24.1562C81.0078 24.1719 79.7891 23.6328 79.7969 22.6875ZM102.719 22.3594H97.0156V19.4844H101.203V12.2812H99.7344V14.6875H92.8594V12.2812H91.375V19.4844H95.5469V22.3594H89.9062V23.5938H102.719V22.3594ZM92.8594 18.2812V15.8906H99.7344V18.2812H92.8594ZM115.75 11.3281H114.328V25.3281H115.75V11.3281ZM103.531 21.4688L104.438 22.5781C105.805 21.7266 106.758 20.1641 107.258 18.3359C107.75 20.0234 108.664 21.4531 110 22.25L110.891 21.1562C108.922 20.0234 107.953 17.625 107.953 15.2344V14.1094H110.359V12.9062H103.953V14.1094H106.531V15.2344C106.523 17.7266 105.516 20.2734 103.531 21.4688ZM109.328 17.5H111.5V24.625H112.906V11.625H111.5V16.2812H109.328V17.5ZM123.875 20.125C120.875 20.125 118.953 21.0859 118.953 22.7188C118.953 24.3438 120.875 25.3047 123.875 25.2969C126.906 25.3047 128.82 24.3438 128.828 22.7188C128.82 21.0859 126.906 20.125 123.875 20.125ZM117.578 18.9688H130.312V17.7656H124.141V15.1406H122.688V17.7656H117.578V18.9688ZM119.062 13.2031H127.25C127.25 14.2891 127.25 15.3203 126.875 16.75L128.328 16.9062C128.727 15.4609 128.727 14.3047 128.719 13.1875V12.0156H119.062V13.2031ZM120.438 22.7188C120.422 21.7969 121.758 21.2578 123.875 21.25C126.016 21.2578 127.344 21.7969 127.359 22.7188C127.344 23.625 126.016 24.1484 123.875 24.1562C121.758 24.1484 120.422 23.625 120.438 22.7188Z" fill="#666666"/>
<rect x="0.5" y="0.5" width="148" height="35" rx="17.5" stroke="#CCCCCC"/>
<defs>
<clipPath id="clip0_2094_8252">
<rect width="18" height="18" fill="white" transform="translate(18 9)"/>
</clipPath>
</defs>
</svg>
