<svg width="167" height="36" viewBox="0 0 167 36" fill="none" xmlns="http://www.w3.org/2000/svg">
<rect x="0.5" y="0.5" width="166" height="35" rx="17.5" fill="white"/>
<path d="M33 16.875V14.1C33 12.8399 33 12.2098 32.7548 11.7285C32.539 11.3052 32.1948 10.961 31.7715 10.7452C31.2902 10.5 30.6601 10.5 29.4 10.5H24.6C23.3399 10.5 22.7098 10.5 22.2285 10.7452C21.8052 10.961 21.461 11.3052 21.2452 11.7285C21 12.2098 21 12.8399 21 14.1V21.9C21 23.1601 21 23.7902 21.2452 24.2715C21.461 24.6948 21.8052 25.039 22.2285 25.2548C22.7098 25.5 23.3399 25.5 24.6 25.5H27M28.5 17.25H24M25.5 20.25H24M30 14.25H24M31.5 24.75V20.25M29.25 22.5H33.75" stroke="#FA845F" stroke-width="2" stroke-linecap="round" stroke-linejoin="round"/>
<path d="M56.5 11.3281H55.0781V16.9375H53.2812V11.6094H51.8906V24.6094H53.2812V18.1562H55.0781V25.3281H56.5V11.3281ZM45.1719 21.7656H46.0781C47.5859 21.7734 49.1875 21.6719 51.1094 21.3281L50.9531 20.0312C49.3594 20.3438 47.9453 20.4453 46.6562 20.4609V12.9844H45.1719V21.7656ZM66.0469 12.375C63.9609 12.3828 62.4844 14.2891 62.5 17.2812C62.4844 20.3047 63.9609 22.2109 66.0469 22.2031C67.3984 22.2109 68.4922 21.3906 69.0938 19.9844H72.4531V25.3594H73.9219V11.3281H72.4531V14.375H68.9922C68.375 13.1094 67.3281 12.3828 66.0469 12.375ZM63.9062 17.2812C63.9141 15.0859 64.7812 13.7109 66.0469 13.7031C67.3125 13.7109 68.1797 15.0859 68.1875 17.2812C68.1797 19.5078 67.3125 20.875 66.0469 20.875C64.7812 20.875 63.9141 19.5078 63.9062 17.2812ZM69.4141 15.5938H72.4531V18.7656H69.4531C69.5469 18.3047 69.5938 17.8125 69.5938 17.2812C69.5938 16.6719 69.5234 16.1094 69.4141 15.5938ZM88.0156 11.3281H86.6094V15.0312H84.9844V11.5938H83.5938V19.6719H84.9844V16.25H86.6094V20.1562H88.0156V11.3281ZM76 14.0938H83.0781V12.9219H80.2969V11.4375H78.8281V12.9219H76V14.0938ZM76.5469 17.1562C76.5469 18.6094 77.7969 19.5625 79.5469 19.5625C81.3359 19.5625 82.5781 18.6094 82.5781 17.1562C82.5781 15.7031 81.3359 14.75 79.5469 14.75C77.7969 14.75 76.5469 15.7031 76.5469 17.1562ZM77.875 17.1562C77.875 16.3594 78.5547 15.8359 79.5469 15.8438C80.5547 15.8359 81.2422 16.3594 81.2344 17.1562C81.2422 17.9531 80.5547 18.4766 79.5469 18.4844C78.5547 18.4766 77.875 17.9531 77.875 17.1562ZM78.5938 22.8438C78.5781 24.4141 80.3594 25.3047 83.3281 25.2969C86.3047 25.3047 88.0859 24.4141 88.0938 22.8438C88.0859 21.2578 86.3047 20.3594 83.3281 20.3594C80.3594 20.3594 78.5781 21.2578 78.5938 22.8438ZM80.0625 22.8438C80.0469 21.9609 81.25 21.4922 83.3281 21.5C85.4141 21.4922 86.6016 21.9609 86.6094 22.8438C86.6016 23.6875 85.4141 24.1719 83.3281 24.1562C81.25 24.1719 80.0469 23.6875 80.0625 22.8438ZM93.875 11.7969C91.7422 11.8125 90.1953 13.1016 90.1875 14.9375C90.1953 16.7812 91.7422 18.0625 93.875 18.0625C95.9844 18.0625 97.5391 16.7812 97.5469 14.9375C97.5391 13.1016 95.9844 11.8125 93.875 11.7969ZM91.6406 14.9375C91.6328 13.7969 92.5859 13.0312 93.875 13.0469C95.1562 13.0312 96.1094 13.7969 96.1094 14.9375C96.1094 16.0938 95.1562 16.8594 93.875 16.8594C92.5859 16.8594 91.6328 16.0938 91.6406 14.9375ZM92.3125 20.2812H100.047V21.5156H92.3594V25.1562H101.984V23.9688H93.7969V22.625H101.516V19.0938H92.3125V20.2812ZM100.031 18.4531H101.516V11.3281H100.031V18.4531ZM115.406 11.3281H113.922V14.8906H111.312V16.1094H113.922V19.6562H115.406V11.3281ZM103.734 18.3906L104.516 19.5781C106.188 18.9609 107.414 17.7031 108.023 16.1406C108.633 17.5234 109.789 18.6484 111.359 19.1875L112.125 18.0156C110.008 17.2969 108.742 15.5703 108.75 13.7969V13.5H111.75V12.2969H104.203V13.5H107.234V13.8125C107.242 15.7422 105.906 17.6328 103.734 18.3906ZM105.984 22.6875C105.977 24.3516 107.773 25.3203 110.719 25.3281C113.648 25.3203 115.445 24.3516 115.453 22.6875C115.445 21.0234 113.648 20.0547 110.719 20.0469C107.773 20.0547 105.977 21.0234 105.984 22.6875ZM107.453 22.6875C107.445 21.7344 108.664 21.1953 110.719 21.2031C112.758 21.1953 113.977 21.7344 113.984 22.6875C113.977 23.6328 112.758 24.1719 110.719 24.1562C108.664 24.1719 107.445 23.6328 107.453 22.6875ZM129.266 12.3906H122.203V13.6094H127.805C127.789 14.4922 127.742 15.625 127.438 17.1719L128.906 17.3125C129.25 15.5 129.25 14.1094 129.266 13.1719V12.3906ZM121.359 18.5156L121.5 19.7188C123.969 19.7109 127.312 19.6562 130.234 19.1406L130.141 18.0625C128.734 18.2656 127.188 18.375 125.688 18.4375V15.5312H124.219V18.4844C123.195 18.5078 122.219 18.5156 121.359 18.5156ZM123.484 25.0312H133V23.8281H124.969V20.8906H123.484V25.0312ZM131.031 21.8438H132.547V17.0312H134.469V15.7812H132.547V11.3281H131.031V21.8438ZM146.922 11.3281H145.438V25.3594H146.922V11.3281ZM136.078 13.7969H141.125V16.5156H136.094V22H137.281C139.758 21.9922 141.867 21.8984 144.344 21.4844L144.203 20.2656C141.859 20.6484 139.883 20.7578 137.609 20.7656V17.7031H142.641V12.5938H136.078V13.7969Z" fill="#666666"/>
<rect x="0.5" y="0.5" width="166" height="35" rx="17.5" stroke="#CCCCCC"/>
</svg>
