<svg width="30" height="30" viewBox="0 0 30 30" fill="none" xmlns="http://www.w3.org/2000/svg">
<path d="M15 13V8.33333M15 17.6667H15.0133M12.2 24.6L14.1467 27.1956C14.4362 27.5815 14.5809 27.7745 14.7584 27.8436C14.9138 27.904 15.0862 27.904 15.2416 27.8436C15.4191 27.7745 15.5638 27.5815 15.8533 27.1956L17.8 24.6C18.1909 24.0788 18.3863 23.8183 18.6247 23.6193C18.9425 23.3541 19.3177 23.1664 19.7207 23.0713C20.0228 23 20.3486 23 21 23C22.8638 23 23.7957 23 24.5307 22.6955C25.5108 22.2895 26.2895 21.5108 26.6955 20.5307C27 19.7956 27 18.8638 27 17V9.4C27 7.15979 27 6.03968 26.564 5.18404C26.1805 4.43139 25.5686 3.81947 24.816 3.43597C23.9603 3 22.8402 3 20.6 3H9.4C7.15979 3 6.03969 3 5.18404 3.43597C4.43139 3.81947 3.81947 4.43139 3.43597 5.18404C3 6.03968 3 7.15979 3 9.4V17C3 18.8638 3 19.7956 3.30448 20.5307C3.71046 21.5108 4.48915 22.2895 5.46927 22.6955C6.20435 23 7.13623 23 9 23C9.65144 23 9.97716 23 10.2793 23.0713C10.6823 23.1664 11.0575 23.3541 11.3753 23.6193C11.6137 23.8183 11.8091 24.0788 12.2 24.6Z" stroke="white" stroke-width="2" stroke-linecap="round" stroke-linejoin="round"/>
</svg>
