<svg width="28" height="28" viewBox="0 0 28 28" fill="none" xmlns="http://www.w3.org/2000/svg">
<path d="M24.6311 23.4803C24.354 25.2812 22.8045 26.6106 20.9824 26.6106H4.46106C3.10185 26.6106 2 25.5087 2 24.1495V15.5358C2 14.1766 3.10185 13.0748 4.46106 13.0748H7.35296C7.83925 13.0748 8.27993 12.7884 8.47743 12.344L12.8078 2.60065C12.9701 2.23539 13.3324 2 13.7321 2C15.4078 2 16.7663 3.3585 16.7663 5.03429V9.38317C16.7663 10.0628 17.3173 10.6137 17.9969 10.6137H22.3076C24.5701 10.6137 26.3003 12.6304 25.9563 14.8666L24.6311 23.4803Z" fill="white"/>
<path d="M24.6311 23.4803C24.354 25.2812 22.8045 26.6106 20.9824 26.6106H4.46106C3.10185 26.6106 2 25.5087 2 24.1495V15.5358C2 14.1766 3.10185 13.0748 4.46106 13.0748H7.35296C7.83925 13.0748 8.27993 12.7884 8.47743 12.344L12.8078 2.60065C12.9701 2.23539 13.3324 2 13.7321 2C15.4078 2 16.7663 3.3585 16.7663 5.03429V9.38317C16.7663 10.0628 17.3173 10.6137 17.9969 10.6137H22.3076C24.5701 10.6137 26.3003 12.6304 25.9563 14.8666L24.6311 23.4803Z" fill="white"/>
<path d="M8.15264 26.6106V13.0748M2 15.5358V24.1495C2 25.5087 3.10185 26.6106 4.46106 26.6106H20.9824C22.8045 26.6106 24.354 25.2812 24.6311 23.4803L25.9563 14.8666C26.3003 12.6304 24.5701 10.6137 22.3076 10.6137H17.9969C17.3173 10.6137 16.7663 10.0628 16.7663 9.38317V5.03429C16.7663 3.3585 15.4078 2 13.7321 2C13.3324 2 12.9701 2.23539 12.8078 2.60065L8.47743 12.344C8.27993 12.7884 7.83925 13.0748 7.35296 13.0748H4.46106C3.10185 13.0748 2 14.1766 2 15.5358Z" stroke="#CCCCCC" stroke-width="2" stroke-linecap="round" stroke-linejoin="round"/>
</svg>
