<svg width="28" height="28" viewBox="0 0 28 28" fill="none" xmlns="http://www.w3.org/2000/svg">
<path d="M17.3397 13.818C17.3397 15.6614 15.8454 17.1558 14.0019 17.1558C12.1585 17.1558 10.6641 15.6614 10.6641 13.818C10.6641 11.9746 12.1585 10.4802 14.0019 10.4802C15.8454 10.4802 17.3397 11.9746 17.3397 13.818Z" fill="#909090"/>
<path d="M24.4967 9.20556C24.4962 8.1401 23.6292 7.27323 22.5637 7.27323H20.4737C20.286 7.27323 20.1096 7.20014 19.977 7.06754L18.1424 5.23295C17.7775 4.86798 17.2921 4.66675 16.7758 4.66675L11.2239 4.6669C10.7077 4.6669 10.2222 4.86797 9.85734 5.2331L8.02275 7.0677C7.89015 7.2003 7.71375 7.27339 7.5261 7.27339H5.43604C4.37058 7.27339 3.50356 8.14025 3.50308 9.20571L3.5 19.7478C3.5 20.8136 4.36703 21.6807 5.43296 21.6807H22.567C23.6328 21.6807 24.5 20.8137 24.5 19.7478L24.4967 9.20556ZM14.002 18.3862C11.4831 18.3862 9.43376 16.3368 9.43376 13.818C9.43376 11.2991 11.4831 9.24977 14.002 9.24977C16.5208 9.24977 18.5702 11.2991 18.5702 13.818C18.5702 16.3368 16.521 18.3862 14.002 18.3862Z" fill="#909090"/>
</svg>
