<svg width="26" height="27" viewBox="0 0 26 27" fill="none" xmlns="http://www.w3.org/2000/svg">
<path d="M23.6311 22.4803C23.354 24.2812 21.8045 25.6106 19.9824 25.6106H3.46106C2.10185 25.6106 1 24.5087 1 23.1495V14.5358C1 13.1766 2.10185 12.0748 3.46106 12.0748H6.35296C6.83925 12.0748 7.27993 11.7884 7.47743 11.344L11.8078 1.60065C11.9701 1.23539 12.3324 1 12.7321 1C14.4078 1 15.7663 2.3585 15.7663 4.03429V8.38317C15.7663 9.06277 16.3173 9.6137 16.9969 9.6137H21.3076C23.5701 9.6137 25.3003 11.6304 24.9563 13.8666L23.6311 22.4803Z" fill="white" stroke="#CCCCCC" stroke-width="2" stroke-linecap="round" stroke-linejoin="round"/>
</svg>
