<svg width="29" height="29" viewBox="0 0 29 29" fill="none" xmlns="http://www.w3.org/2000/svg">
<path d="M3.02607 7.02018C3.30017 5.23852 3.43722 4.34769 3.87394 3.67834C4.25884 3.0884 4.80413 2.62058 5.44574 2.32986C6.17371 2 7.07502 2 8.87765 2H22.053C23.4346 2 24.1254 2 24.6531 2.26887C25.1172 2.50537 25.4946 2.88275 25.7311 3.34692C26 3.87461 26 4.56539 26 5.94695V11.6207C26 13.0023 26 13.693 25.7311 14.2207C25.4946 14.6849 25.1172 15.0623 24.6531 15.2988C24.1254 15.5676 23.4346 15.5676 22.053 15.5676H21.1154C20.6512 15.5676 20.4191 15.5676 20.2164 15.6406C20.0373 15.7052 19.8755 15.8103 19.7438 15.9478C19.5948 16.1033 19.5006 16.3154 19.312 16.7396L15.1668 26.0664C15.0041 26.4325 14.641 26.6684 14.2404 26.6684C12.5606 26.6684 11.1989 25.3067 11.1989 23.627V20.008C11.1989 19.3172 11.1989 18.9718 11.0645 18.7079C10.9462 18.4759 10.7576 18.2872 10.5255 18.1689C10.2616 18.0345 9.91624 18.0345 9.22546 18.0345H8.23248C5.85493 18.0345 4.66616 18.0345 3.81558 17.5508C3.06902 17.1263 2.49337 16.4553 2.18731 15.6529C1.83861 14.7387 2.01937 13.5637 2.38089 11.2138L3.02607 7.02018Z" fill="white"/>
<path d="M19.8329 2V15.5676M26 11.6207V5.94695C26 4.56539 26 3.87461 25.7311 3.34692C25.4946 2.88275 25.1172 2.50537 24.6531 2.26887C24.1254 2 23.4346 2 22.053 2H8.87765C7.07502 2 6.17371 2 5.44574 2.32986C4.80413 2.62058 4.25884 3.0884 3.87394 3.67834C3.43722 4.34769 3.30017 5.23852 3.02607 7.02018L2.38089 11.2138C2.01937 13.5637 1.83861 14.7387 2.18731 15.6529C2.49337 16.4553 3.06902 17.1263 3.81558 17.5508C4.66616 18.0345 5.85493 18.0345 8.23248 18.0345H9.22546C9.91624 18.0345 10.2616 18.0345 10.5255 18.1689C10.7576 18.2872 10.9462 18.4759 11.0645 18.7079C11.1989 18.9718 11.1989 19.3172 11.1989 20.008V23.627C11.1989 25.3067 12.5606 26.6684 14.2404 26.6684C14.641 26.6684 15.0041 26.4325 15.1668 26.0664L19.312 16.7396C19.5006 16.3154 19.5948 16.1033 19.7438 15.9478C19.8755 15.8103 20.0373 15.7052 20.2164 15.6406C20.4191 15.5676 20.6512 15.5676 21.1154 15.5676H22.053C23.4346 15.5676 24.1254 15.5676 24.6531 15.2988C25.1172 15.0623 25.4946 14.6849 25.7311 14.2207C26 13.693 26 13.0023 26 11.6207Z" stroke="#CCCCCC" stroke-width="2" stroke-linecap="round" stroke-linejoin="round"/>
</svg>
