<svg width="30" height="31" viewBox="0 0 30 31" fill="none" xmlns="http://www.w3.org/2000/svg">
<path d="M27.1137 24.7084C26.724 27.241 24.5449 29.1106 21.9824 29.1106H5.46106C3.27343 29.1106 1.5 27.3371 1.5 25.1495V16.5358C1.5 14.3482 3.27343 12.5748 5.46106 12.5748H8.17783L12.4371 2.99144L12.4371 2.99144L13.8078 3.60065L27.1137 24.7084ZM27.1137 24.7084L28.4388 16.0947C28.9227 12.9499 26.4895 10.1137 23.3076 10.1137H19.2663L27.1137 24.7084Z" fill="white" stroke="white" stroke-width="3" stroke-linecap="round" stroke-linejoin="round"/>
<path d="M25.6311 24.4803C25.354 26.2812 23.8045 27.6106 21.9824 27.6106H5.46106C4.10185 27.6106 3 26.5087 3 25.1495V16.5358C3 15.1766 4.10185 14.0748 5.46106 14.0748H8.35296C8.83925 14.0748 9.27993 13.7884 9.47743 13.344L13.8078 3.60065C13.9701 3.23539 14.3324 3 14.7321 3C16.4078 3 17.7663 4.3585 17.7663 6.03429V10.3832C17.7663 11.0628 18.3173 11.6137 18.9969 11.6137H23.3076C25.5701 11.6137 27.3003 13.6304 26.9563 15.8666L25.6311 24.4803Z" fill="white"/>
<path d="M9.15264 27.6106V14.0748M3 16.5358V25.1495C3 26.5087 4.10185 27.6106 5.46106 27.6106H21.9824C23.8045 27.6106 25.354 26.2812 25.6311 24.4803L26.9563 15.8666C27.3003 13.6304 25.5701 11.6137 23.3076 11.6137H18.9969C18.3173 11.6137 17.7663 11.0628 17.7663 10.3832V6.03429C17.7663 4.3585 16.4078 3 14.7321 3C14.3324 3 13.9701 3.23539 13.8078 3.60065L9.47743 13.344C9.27993 13.7884 8.83925 14.0748 8.35296 14.0748H5.46106C4.10185 14.0748 3 15.1766 3 16.5358Z" stroke="#222222" stroke-width="2" stroke-linecap="round" stroke-linejoin="round"/>
</svg>
