<svg width="24" height="24" viewBox="0 0 24 24" fill="none" xmlns="http://www.w3.org/2000/svg">
<path d="M18.1682 10.0402L6.83176 16.599M18.1682 10.0402L19.1949 6.20048M18.1682 10.0402L22 11.0691M6.83176 16.599L3 15.5702M6.83176 16.599L5.80505 20.4388M18.1681 16.5989L6.83169 10.0401M18.1681 16.5989L22 15.57M18.1681 16.5989L19.195 20.4387M6.83169 10.0401L5.80518 6.20058M6.83169 10.0401L3.00013 11.0692M12.5 6.76085L12.5 19.8784M12.5 6.76085L9.69495 3.94995M12.5 6.76085L15.305 3.94995M12.5 19.8784L9.69495 22.6893M12.5 19.8784L15.305 22.6893" stroke="#222222" stroke-width="2" stroke-linecap="round" stroke-linejoin="round"/>
</svg>
