<svg width="24" height="24" viewBox="0 0 24 24" fill="none" xmlns="http://www.w3.org/2000/svg">
<path d="M3 20H21" stroke="#222222" stroke-width="2" stroke-linecap="round"/>
<path d="M7.14254 20.162C7.14451 20.1578 7.14617 20.1537 7.14754 20.15H7.85H8H16H16.15H16.8525C16.8538 20.1537 16.8555 20.1578 16.8575 20.162C16.86 20.1675 16.8659 20.1796 16.8763 20.1929C16.8817 20.1998 16.8906 20.2099 16.9036 20.2199C16.9166 20.2299 16.9374 20.2423 16.9654 20.248C16.9954 20.254 17.0261 20.2507 17.0535 20.2392C17.0792 20.2284 17.0966 20.2128 17.1071 20.2012C17.1263 20.18 17.1345 20.1586 17.1371 20.1515C17.1433 20.1346 17.1454 20.1198 17.146 20.1151C17.147 20.108 17.1476 20.1012 17.148 20.0956C17.1495 20.0744 17.15 20.0424 17.15 20C17.15 17.1557 14.8443 14.85 12 14.85C9.15573 14.85 6.85 17.1557 6.85 20C6.85 20.0424 6.85049 20.0744 6.85198 20.0956C6.85237 20.1012 6.85297 20.108 6.85396 20.1151L6.85396 20.1151C6.85462 20.1198 6.8567 20.1347 6.8629 20.1515C6.86552 20.1586 6.87373 20.18 6.89293 20.2012C6.90343 20.2128 6.92082 20.2284 6.94646 20.2392C6.97393 20.2507 7.0046 20.254 7.03456 20.248C7.06264 20.2423 7.08336 20.2299 7.09642 20.2199C7.10942 20.2099 7.11831 20.1998 7.12371 20.1929C7.1341 20.1796 7.14 20.1675 7.14254 20.162ZM15.8471 19.85H8.15287C8.23166 17.7932 9.92393 16.15 12 16.15C14.0761 16.15 15.7683 17.7932 15.8471 19.85Z" fill="#222222" stroke="#222222" stroke-width="0.3"/>
<path d="M12 10V12" stroke="#222222" stroke-width="2" stroke-linecap="round"/>
<path d="M19.0435 13L17.6811 14.4642" stroke="#222222" stroke-width="2" stroke-linecap="round"/>
<path d="M5 13L6.36236 14.4642" stroke="#222222" stroke-width="2" stroke-linecap="round"/>
<path d="M9.67846 5.25L12 2.73686L14.3215 5.25H9.67846Z" fill="#222222" stroke="#222222"/>
</svg>
