<svg width="62" height="62" viewBox="0 0 62 62" fill="none" xmlns="http://www.w3.org/2000/svg">
<rect width="62" height="62" rx="10" fill="#91CAF0"/>
<path d="M44.3838 13.5241C43.6888 11.0629 42.2068 8.897 40.1644 7.35767C38.1221 5.81833 35.6318 4.99027 33.0743 5.00009C30.5169 5.0099 28.033 5.85706 26.0025 7.41202C23.972 8.96699 22.5067 11.1442 21.8306 13.6107C20.7905 13.286 19.6927 13.1896 18.6119 13.328C17.5312 13.4664 16.4931 13.8364 15.5683 14.4126C14.6436 14.9888 13.8541 15.7578 13.2537 16.667C12.6533 17.5762 12.2562 18.6042 12.0893 19.6809C11.9225 20.7577 11.9899 21.8577 12.287 22.906C12.5841 23.9542 13.1039 24.926 13.8108 25.7551C14.5178 26.5842 15.3953 27.2509 16.3835 27.7099C17.3717 28.1689 18.4472 28.4092 19.5368 28.4146H42.3864C44.2275 28.4242 46.0091 27.7629 47.398 26.5542C48.7869 25.3456 49.688 23.6724 49.9327 21.8476C50.1775 20.0228 49.7492 18.1714 48.728 16.6394C47.7067 15.1075 46.1624 14 44.3838 13.5241Z" fill="white"/>
<path d="M42.1483 14.8703C41.6724 13.2338 40.7501 11.7622 39.4847 10.6204C38.2194 9.47868 36.6611 8.71191 34.9844 8.40608C33.3078 8.10025 31.5791 8.26744 29.9921 8.88892C28.4052 9.5104 27.0227 10.5616 25.9996 11.9247C24.9766 13.2878 24.3534 14.9089 24.1999 16.6062C24.0464 18.3036 24.3687 20.0102 25.1307 21.5347C25.8927 23.0592 27.0642 24.3413 28.514 25.2374C29.9637 26.1334 31.6344 26.608 33.3387 26.6078H42.1505C43.707 26.6078 45.1997 25.9895 46.3003 24.8889C47.4009 23.7883 48.0192 22.2956 48.0192 20.7391C48.0192 19.1826 47.4009 17.6899 46.3003 16.5892C45.1997 15.4886 43.707 14.8703 42.1505 14.8703H42.1483Z" fill="#CFEDFA"/>
<path d="M34.1313 39.5961H32.116V38.0854C32.1228 37.9685 32.1057 37.8514 32.0657 37.7414C32.0256 37.6314 31.9636 37.5307 31.8832 37.4455C31.8029 37.3603 31.706 37.2924 31.5984 37.246C31.4909 37.1996 31.3751 37.1757 31.258 37.1757C31.1409 37.1757 31.025 37.1996 30.9175 37.246C30.81 37.2924 30.7131 37.3603 30.6327 37.4455C30.5524 37.5307 30.4903 37.6314 30.4502 37.7414C30.4102 37.8514 30.3931 37.9685 30.3999 38.0854V39.5961H29.1532V38.0854C29.1531 37.9583 29.1246 37.8328 29.0698 37.7181C29.015 37.6034 28.9353 37.5024 28.8364 37.4225C28.8507 37.2966 28.8362 37.1692 28.794 37.0497C28.7519 36.9303 28.6831 36.8221 28.5929 36.7331L27.5252 35.6653L28.4052 34.7853L29.473 35.8531C29.5514 35.9384 29.6463 36.007 29.7519 36.0547C29.8576 36.1024 29.9718 36.1282 30.0877 36.1307C30.2035 36.1331 30.3187 36.112 30.4262 36.0688C30.5338 36.0256 30.6315 35.9611 30.7134 35.8791C30.7954 35.7971 30.8599 35.6995 30.9032 35.5919C30.9464 35.4844 30.9674 35.3692 30.965 35.2533C30.9626 35.1374 30.9367 35.0232 30.889 34.9176C30.8413 34.812 30.7727 34.7171 30.6874 34.6386L29.6196 33.5679L31.0453 32.1452C31.1401 32.0695 31.2178 31.9745 31.2733 31.8666C31.3288 31.7586 31.3608 31.6401 31.3672 31.5189C31.3736 31.3977 31.3542 31.2765 31.3104 31.1633C31.2666 31.0501 31.1993 30.9475 31.1129 30.8622C31.0266 30.7769 30.9232 30.7109 30.8094 30.6684C30.6957 30.626 30.5743 30.6081 30.4532 30.616C30.3321 30.6238 30.214 30.6573 30.1067 30.7141C29.9995 30.7709 29.9054 30.8497 29.8309 30.9455L28.4052 32.3682L27.3374 31.3004C27.1742 31.1503 26.9593 31.0692 26.7377 31.0738C26.516 31.0785 26.3047 31.1686 26.148 31.3253C25.9912 31.4821 25.9011 31.6934 25.8964 31.9151C25.8918 32.1367 25.9729 32.3516 26.123 32.5148L27.1908 33.5826L26.3107 34.4626L25.243 33.3949C25.1526 33.3059 25.0437 33.2379 24.924 33.1958C24.8044 33.1537 24.6769 33.1386 24.5507 33.1514C24.4709 33.0531 24.3704 32.9737 24.2562 32.9189C24.1421 32.8641 24.0173 32.8353 23.8907 32.8346H22.38V31.5908H23.8907C24.1186 31.5908 24.3372 31.5002 24.4984 31.3391C24.6596 31.1779 24.7502 30.9593 24.7502 30.7313C24.7502 30.5034 24.6596 30.2848 24.4984 30.1236C24.3372 29.9624 24.1186 29.8718 23.8907 29.8718H22.38V27.8595C22.38 27.6315 22.2894 27.4129 22.1282 27.2518C21.967 27.0906 21.7484 27 21.5205 27C21.2925 27 21.0739 27.0906 20.9127 27.2518C20.7515 27.4129 20.661 27.6315 20.661 27.8595V29.8718H19.1503C18.9223 29.8718 18.7037 29.9624 18.5425 30.1236C18.3813 30.2848 18.2908 30.5034 18.2908 30.7313C18.2908 30.9593 18.3813 31.1779 18.5425 31.3391C18.7037 31.5002 18.9223 31.5908 19.1503 31.5908H20.661V32.8346H19.1503C19.0236 32.8351 18.8987 32.8638 18.7846 32.9186C18.6704 32.9734 18.5699 33.0529 18.4902 33.1514C18.364 33.1384 18.2365 33.1534 18.1168 33.1955C17.9971 33.2376 17.8882 33.3057 17.798 33.3949L16.7302 34.4626L15.8502 33.5826L16.9179 32.5148C17.068 32.3516 17.1492 32.1367 17.1445 31.9151C17.1399 31.6934 17.0497 31.4821 16.893 31.3253C16.7362 31.1686 16.5249 31.0785 16.3032 31.0738C16.0816 31.0692 15.8667 31.1503 15.7035 31.3004L14.6357 32.3535L13.2101 30.9455C13.1316 30.8601 13.0367 30.7916 12.9311 30.7439C12.8255 30.6962 12.7113 30.6703 12.5954 30.6679C12.4795 30.6655 12.3643 30.6865 12.2568 30.7297C12.1493 30.7729 12.0516 30.8375 11.9696 30.9194C11.8877 31.0014 11.8231 31.0991 11.7799 31.2066C11.7367 31.3142 11.7156 31.4293 11.7181 31.5452C11.7205 31.6611 11.7463 31.7753 11.794 31.8809C11.8417 31.9865 11.9103 32.0815 11.9956 32.1599L13.4213 33.5826L12.3506 34.6533C12.2708 34.7332 12.2076 34.8281 12.1645 34.9325C12.1215 35.0368 12.0994 35.1487 12.0995 35.2616C12.0996 35.3745 12.122 35.4862 12.1653 35.5905C12.2087 35.6948 12.2721 35.7895 12.3521 35.8692C12.432 35.9489 12.5268 36.0122 12.6312 36.0552C12.7356 36.0983 12.8474 36.1204 12.9603 36.1203C13.0732 36.1202 13.185 36.0978 13.2893 36.0545C13.3935 36.0111 13.4882 35.9477 13.568 35.8677L14.6357 34.8L15.5157 35.68L14.4451 36.7478C14.3068 37.2171 14.119 37.6705 13.8848 38.1001V39.6108H12.641V38.1001C12.6478 37.9832 12.6307 37.8661 12.5907 37.7561C12.5507 37.646 12.4886 37.5453 12.4082 37.4601C12.3279 37.375 12.231 37.3071 12.1234 37.2607C12.0159 37.2143 11.9001 37.1904 11.783 37.1904C11.6659 37.1904 11.55 37.2143 11.4425 37.2607C11.335 37.3071 11.2381 37.375 11.1577 37.4601C11.0774 37.5453 11.0153 37.646 10.9753 37.7561C10.9352 37.8661 10.9181 37.9832 10.9249 38.1001V39.6108H8.90968C8.79278 39.6039 8.67572 39.6211 8.56568 39.6611C8.45564 39.7011 8.35493 39.7632 8.26975 39.8436C8.18457 39.9239 8.1167 40.0208 8.07031 40.1283C8.02393 40.2359 8 40.3517 8 40.4688C8 40.5859 8.02393 40.7018 8.07031 40.8093C8.1167 40.9168 8.18457 41.0137 8.26975 41.0941C8.35493 41.1744 8.45564 41.2365 8.56568 41.2765C8.67572 41.3166 8.79278 41.3337 8.90968 41.3268H10.9249V42.8405C10.9377 43.0594 11.0337 43.2651 11.1932 43.4155C11.3527 43.566 11.5637 43.6498 11.783 43.6498C12.0022 43.6498 12.2132 43.566 12.3727 43.4155C12.5322 43.2651 12.6282 43.0594 12.641 42.8405V41.3268H13.8848V42.8405C14.1203 43.2695 14.3082 43.7229 14.4451 44.1928L15.5157 45.2606L14.6357 46.1406L13.568 45.0728C13.4069 44.9114 13.1883 44.8205 12.9603 44.8203C12.7323 44.82 12.5135 44.9103 12.3521 45.0714C12.1906 45.2324 12.0998 45.451 12.0995 45.679C12.0992 45.907 12.1895 46.1258 12.3506 46.2873L13.4213 47.355L11.9956 48.766C11.8456 48.9292 11.7644 49.1441 11.769 49.3658C11.7737 49.5874 11.8638 49.7987 12.0206 49.9555C12.1774 50.1123 12.3887 50.2024 12.6103 50.207C12.832 50.2117 13.0469 50.1305 13.2101 49.9804L14.6357 48.546L15.7035 49.6138C15.8667 49.7638 16.0816 49.845 16.3032 49.8404C16.5249 49.8357 16.7362 49.7456 16.893 49.5888C17.0497 49.432 17.1399 49.2207 17.1445 48.9991C17.1492 48.7774 17.068 48.5625 16.9179 48.3993L15.8502 47.3316L16.7302 46.4515L17.798 47.5193C17.8874 47.6097 17.9961 47.6786 18.1161 47.7207C18.236 47.7629 18.3639 47.7773 18.4902 47.7628C18.5694 47.8617 18.6699 47.9415 18.7842 47.9964C18.8984 48.0512 19.0235 48.0797 19.1503 48.0796H20.661V49.3234H19.1503C18.9223 49.3234 18.7037 49.4139 18.5425 49.5751C18.3813 49.7363 18.2908 49.9549 18.2908 50.1828C18.2908 50.4108 18.3813 50.6294 18.5425 50.7906C18.7037 50.9518 18.9223 51.0423 19.1503 51.0423H20.661V53.0576C20.661 53.2855 20.7515 53.5042 20.9127 53.6654C21.0739 53.8265 21.2925 53.9171 21.5205 53.9171C21.7484 53.9171 21.967 53.8265 22.1282 53.6654C22.2894 53.5042 22.38 53.2855 22.38 53.0576V51.0423H23.8907C24.1186 51.0423 24.3372 50.9518 24.4984 50.7906C24.6596 50.6294 24.7502 50.4108 24.7502 50.1828C24.7502 49.9549 24.6596 49.7363 24.4984 49.5751C24.3372 49.4139 24.1186 49.3234 23.8907 49.3234H22.38V48.0796H23.8907C24.0174 48.0794 24.1424 48.0509 24.2566 47.9961C24.3709 47.9413 24.4713 47.8615 24.5507 47.7628C24.677 47.7771 24.8049 47.7626 24.9248 47.7204C25.0447 47.6783 25.1535 47.6095 25.243 47.5193L26.3107 46.4515L27.1908 47.3316L26.123 48.3993C25.9729 48.5625 25.8918 48.7774 25.8964 48.9991C25.9011 49.2207 25.9912 49.432 26.148 49.5888C26.3047 49.7456 26.516 49.8357 26.7377 49.8404C26.9593 49.845 27.1742 49.7638 27.3374 49.6138L28.4052 48.546L29.8309 49.9716C29.9941 50.1217 30.2089 50.2029 30.4306 50.1982C30.6523 50.1936 30.8636 50.1034 31.0203 49.9467C31.1771 49.7899 31.2672 49.5786 31.2719 49.357C31.2765 49.1353 31.1954 48.9204 31.0453 48.7572L29.6196 47.3316L30.6874 46.2638C30.8375 46.1006 30.9187 45.8857 30.914 45.664C30.9094 45.4424 30.8192 45.2311 30.6625 45.0743C30.5057 44.9175 30.2944 44.8274 30.0727 44.8228C29.8511 44.8181 29.6362 44.8993 29.473 45.0494L28.4052 46.1171L27.5252 45.2371L28.5929 44.1693C28.7298 43.6995 28.9177 43.246 29.1532 42.817V41.3034H30.3999V42.817C30.4127 43.0359 30.5087 43.2416 30.6682 43.3921C30.8277 43.5425 31.0387 43.6263 31.258 43.6263C31.4772 43.6263 31.6882 43.5425 31.8477 43.3921C32.0072 43.2416 32.1032 43.0359 32.116 42.817V41.3034H34.1313C34.2481 41.3102 34.3652 41.2931 34.4753 41.2531C34.5853 41.213 34.686 41.1509 34.7712 41.0706C34.8564 40.9903 34.9242 40.8933 34.9706 40.7858C35.017 40.6783 35.0409 40.5624 35.0409 40.4453C35.0409 40.3283 35.017 40.2124 34.9706 40.1049C34.9242 39.9973 34.8564 39.9004 34.7712 39.8201C34.686 39.7398 34.5853 39.6777 34.4753 39.6376C34.3652 39.5976 34.2481 39.5805 34.1313 39.5873V39.5961ZM27.3844 37.9475C27.4056 37.9668 27.4281 37.9844 27.4518 38.0003C27.4504 38.0287 27.4504 38.0571 27.4518 38.0854V39.5961H26.7508C26.7771 39.4583 26.7692 39.3162 26.7278 39.1822C26.6864 39.0482 26.6127 38.9264 26.5132 38.8276L26.2198 38.5342V38.1001C26.2202 37.9597 26.1858 37.8214 26.1198 37.6976C26.0538 37.5737 25.9581 37.4681 25.8414 37.3902L26.3371 36.8944L27.3844 37.9475ZM20.6668 43.4096H20.2972L20.0391 43.1514L20.661 42.5295L20.6668 43.4096ZM22.3858 37.4987H22.7496L23.0077 37.7569L22.3858 38.3817V37.4987ZM24.2221 41.937L23.6003 41.3122H24.4803V41.6789L24.2221 41.937ZM18.5724 41.6789V41.3122H19.4524L18.8305 41.937L18.5724 41.6789ZM18.8305 38.9742L19.4524 39.5961H18.5724V39.2324L18.8305 38.9742ZM23.6003 39.5961L24.2221 38.9742L24.4803 39.2324V39.5961H23.6003ZM20.6668 37.4987V38.3788L20.045 37.7539L20.3031 37.4958L20.6668 37.4987ZM22.3858 43.4096V42.5295L23.0077 43.1514L22.7496 43.4096H22.3858ZM23.8965 34.5389C23.9239 34.5405 23.9513 34.5405 23.9787 34.5389C23.9992 34.5594 24.0139 34.5829 24.0344 34.6034L25.1022 35.6741L24.6094 36.1582C24.5304 36.0427 24.4245 35.9481 24.3008 35.8827C24.1771 35.8173 24.0394 35.783 23.8995 35.7827H23.4653L23.172 35.4893C23.073 35.3901 22.9511 35.3168 22.817 35.2759C22.683 35.235 22.541 35.2277 22.4034 35.2547V34.5536L23.8965 34.5389ZM19.0183 34.5946C19.0388 34.5741 19.0535 34.5506 19.0711 34.5301C19.0994 34.5315 19.1278 34.5315 19.1561 34.5301H20.6668V35.2312C20.5293 35.2042 20.3873 35.2115 20.2532 35.2524C20.1192 35.2934 19.9973 35.3667 19.8983 35.4659L19.6049 35.7592H19.1708C19.0308 35.759 18.8929 35.7931 18.7691 35.8586C18.6454 35.9241 18.5395 36.0188 18.4609 36.1347L17.9652 35.6419L19.0183 34.5946ZM16.7361 36.8798L17.2318 37.3755C17.1151 37.4534 17.0194 37.559 16.9534 37.6829C16.8874 37.8068 16.853 37.9451 16.8534 38.0854V38.5196L16.56 38.8129C16.4608 38.9119 16.3875 39.0338 16.3466 39.1678C16.3057 39.3019 16.2984 39.4439 16.3254 39.5815H15.6038V38.0707C15.6052 38.0424 15.6052 38.014 15.6038 37.9857L15.6712 37.9329L16.7361 36.8798ZM15.6624 42.9725C15.6414 42.9531 15.6188 42.9354 15.595 42.9197C15.595 42.8904 15.595 42.861 15.595 42.8346V41.321H16.296C16.2688 41.4589 16.276 41.6015 16.3169 41.7361C16.3578 41.8706 16.4313 41.993 16.5307 42.0925L16.8241 42.3858V42.8199C16.8244 42.9602 16.8591 43.0982 16.9251 43.2219C16.991 43.3456 17.0863 43.4514 17.2025 43.5298L16.7067 44.0256L15.6624 42.9725ZM19.1503 46.3811C19.1219 46.3797 19.0935 46.3797 19.0652 46.3811C19.0493 46.3574 19.0316 46.3348 19.0124 46.3137L17.9446 45.2459L18.4404 44.7501C18.5183 44.8669 18.6239 44.9625 18.7478 45.0286C18.8716 45.0946 19.0099 45.1289 19.1503 45.1285H19.5844L19.8777 45.4219C19.9766 45.5214 20.0984 45.5951 20.2324 45.6365C20.3664 45.678 20.5085 45.6858 20.6463 45.6595V46.3606L19.1503 46.3811ZM24.0285 46.3225C24.008 46.343 23.9933 46.3665 23.9728 46.3899C23.9455 46.3883 23.918 46.3883 23.8907 46.3899H22.38V45.6712C22.5177 45.6976 22.6599 45.6897 22.7939 45.6483C22.9279 45.6068 23.0497 45.5331 23.1485 45.4336L23.4419 45.1403H23.876C24.0162 45.1399 24.1542 45.1052 24.278 45.0393C24.4017 44.9733 24.5074 44.8781 24.5859 44.7619L25.0816 45.2576L24.0285 46.3225ZM26.3107 44.0403L25.815 43.5445C25.9312 43.466 26.0264 43.3603 26.0924 43.2366C26.1583 43.1128 26.193 42.9748 26.1934 42.8346V42.3858L26.4867 42.0925C26.5865 41.9932 26.6603 41.8709 26.7018 41.7363C26.7432 41.6018 26.751 41.4592 26.7244 41.321H27.4254V42.8346C27.4254 42.861 27.4254 42.8904 27.4254 42.9197C27.401 42.9347 27.3784 42.9524 27.358 42.9725L26.3107 44.0403Z" fill="white"/>
<path d="M53.4503 40.9546H52.1811V39.9992C52.1811 39.8557 52.1241 39.718 52.0227 39.6166C51.9212 39.5151 51.7836 39.4581 51.6401 39.4581C51.4966 39.4581 51.359 39.5151 51.2575 39.6166C51.156 39.718 51.099 39.8557 51.099 39.9992V40.9546H50.3134V39.9992C50.3128 39.9194 50.2944 39.8408 50.2595 39.7692C50.2246 39.6975 50.1742 39.6344 50.1119 39.5847C50.1215 39.505 50.1128 39.4241 50.0863 39.3483C50.0599 39.2725 50.0165 39.2037 49.9594 39.1473L49.2859 38.4738L49.8414 37.9184L50.5148 38.5918C50.6163 38.6934 50.754 38.7504 50.8976 38.7504C51.0411 38.7504 51.1788 38.6934 51.2803 38.5918C51.3819 38.4903 51.4389 38.3526 51.4389 38.2091C51.4389 38.0655 51.3819 37.9278 51.2803 37.8263L50.6069 37.1529L51.5048 36.255C51.6067 36.1534 51.6641 36.0156 51.6644 35.8718C51.6647 35.7279 51.6078 35.5899 51.5063 35.488C51.4047 35.3861 51.2669 35.3287 51.1231 35.3284C50.9792 35.3281 50.8412 35.385 50.7393 35.4865L49.8414 36.3873L49.1679 35.711C49.0645 35.6168 48.9288 35.566 48.7889 35.5692C48.6491 35.5725 48.5158 35.6295 48.4169 35.7284C48.318 35.8273 48.261 35.9606 48.2577 36.1004C48.2545 36.2403 48.3053 36.376 48.3995 36.4794L49.0758 37.1529L48.529 37.7083L47.8556 37.0349C47.7987 36.9783 47.7299 36.935 47.6543 36.9082C47.5787 36.8813 47.498 36.8715 47.4181 36.8795C47.3678 36.8173 47.3042 36.7672 47.232 36.7328C47.1598 36.6985 47.0808 36.6807 47.0008 36.6809H46.0482V35.8952H47.0008C47.1443 35.8952 47.282 35.8382 47.3834 35.7367C47.4849 35.6353 47.5419 35.4976 47.5419 35.3542C47.5419 35.2107 47.4849 35.073 47.3834 34.9716C47.282 34.8701 47.1443 34.8131 47.0008 34.8131H46.0482V33.5411C46.0482 33.3976 45.9912 33.2599 45.8898 33.1585C45.7883 33.057 45.6507 33 45.5072 33C45.3637 33 45.2261 33.057 45.1246 33.1585C45.0231 33.2599 44.9661 33.3976 44.9661 33.5411V34.8131H44.0135C43.87 34.8131 43.7324 34.8701 43.631 34.9716C43.5295 35.073 43.4725 35.2107 43.4725 35.3542C43.4725 35.4976 43.5295 35.6353 43.631 35.7367C43.7324 35.8382 43.87 35.8952 44.0135 35.8952H44.9661V36.6809H44.0135C43.7388 36.8284 43.4494 36.9471 43.1502 37.0349L42.4854 37.7083L41.9098 37.1529L42.5832 36.4794C42.6851 36.3779 42.7425 36.2401 42.7428 36.0962C42.743 35.9524 42.6862 35.8144 42.5846 35.7125C42.4831 35.6106 42.3453 35.5532 42.2015 35.5529C42.0576 35.5526 41.9196 35.6095 41.8177 35.711L41.1442 36.3873L40.2463 35.4865C40.1444 35.385 40.0064 35.3281 39.8625 35.3284C39.7187 35.3287 39.5809 35.3861 39.4793 35.488C39.3778 35.5899 39.3209 35.7279 39.3212 35.8718C39.3215 36.0156 39.3789 36.1534 39.4808 36.255L40.3787 37.1529L39.7053 37.8263C39.6037 37.9278 39.5467 38.0655 39.5467 38.2091C39.5467 38.3526 39.6037 38.4903 39.7053 38.5918C39.8068 38.6934 39.9445 38.7504 40.088 38.7504C40.2316 38.7504 40.3693 38.6934 40.4708 38.5918L41.1442 37.9184L41.6997 38.4738L41.0464 39.1473C40.9895 39.204 40.946 39.2727 40.9191 39.3484C40.8922 39.4241 40.8826 39.5048 40.891 39.5847C40.829 39.6346 40.779 39.6977 40.7447 39.7694C40.7103 39.8411 40.6924 39.9196 40.6924 39.9992V40.9546H39.8952V39.9992C39.8952 39.8557 39.8382 39.718 39.7367 39.6166C39.6353 39.5151 39.4976 39.4581 39.3542 39.4581C39.2107 39.4581 39.073 39.5151 38.9716 39.6166C38.8701 39.718 38.8131 39.8557 38.8131 39.9992V40.9546H37.5411C37.3976 40.9546 37.2599 41.0116 37.1585 41.1131C37.057 41.2146 37 41.3522 37 41.4957C37 41.6392 37.057 41.7768 37.1585 41.8783C37.2599 41.9797 37.3976 42.0367 37.5411 42.0367H38.8131V42.9865C38.8131 43.0575 38.8271 43.1279 38.8543 43.1935C38.8815 43.2591 38.9213 43.3188 38.9716 43.369C39.0218 43.4193 39.0815 43.4591 39.1471 43.4863C39.2127 43.5135 39.2831 43.5275 39.3542 43.5275C39.4252 43.5275 39.4956 43.5135 39.5612 43.4863C39.6269 43.4591 39.6865 43.4193 39.7367 43.369C39.787 43.3188 39.8268 43.2591 39.854 43.1935C39.8812 43.1279 39.8952 43.0575 39.8952 42.9865V42.0367H40.6809V42.9865C40.8284 43.2612 40.9471 43.5506 41.0349 43.8498L41.7083 44.5233L41.1529 45.0787L40.4708 44.3967C40.3689 44.2951 40.2308 44.2383 40.087 44.2385C39.9432 44.2388 39.8053 44.2962 39.7038 44.3981C39.6023 44.5 39.5454 44.638 39.5457 44.7819C39.546 44.9257 39.6034 45.0635 39.7053 45.1651L40.3787 45.8385L39.4923 46.7278C39.3908 46.8293 39.3338 46.967 39.3338 47.1106C39.3338 47.2541 39.3908 47.3918 39.4923 47.4933C39.5938 47.5948 39.7315 47.6519 39.8751 47.6519C40.0186 47.6519 40.1563 47.5948 40.2578 47.4933L41.1557 46.5954L41.8292 47.2688C41.9307 47.3703 42.0684 47.4274 42.212 47.4274C42.3555 47.4274 42.4932 47.3703 42.5947 47.2688C42.6962 47.1673 42.7533 47.0296 42.7533 46.8861C42.7533 46.7425 42.6962 46.6048 42.5947 46.5033L41.9098 45.8385L42.4854 45.2888L43.1588 45.9623C43.2157 46.0187 43.2846 46.0616 43.3603 46.088C43.4359 46.1144 43.5166 46.1235 43.5962 46.1148C43.646 46.1778 43.7094 46.2287 43.7817 46.2636C43.854 46.2985 43.9333 46.3165 44.0135 46.3162H44.9661V47.1019H44.0135C43.87 47.1019 43.7324 47.1589 43.631 47.2604C43.5295 47.3619 43.4725 47.4995 43.4725 47.643C43.4725 47.7865 43.5295 47.9241 43.631 48.0255C43.7324 48.127 43.87 48.184 44.0135 48.184H44.9661V49.4532C44.9661 49.5967 45.0231 49.7343 45.1246 49.8358C45.2261 49.9372 45.3637 49.9942 45.5072 49.9942C45.6507 49.9942 45.7883 49.9372 45.8898 49.8358C45.9912 49.7343 46.0482 49.5967 46.0482 49.4532V48.1667H47.0008C47.1443 48.1667 47.282 48.1097 47.3834 48.0083C47.4849 47.9068 47.5419 47.7692 47.5419 47.6257C47.5419 47.4822 47.4849 47.3446 47.3834 47.2431C47.282 47.1417 47.1443 47.0846 47.0008 47.0846H46.0482V46.299H47.0008C47.0811 46.2992 47.1604 46.2812 47.2327 46.2463C47.305 46.2114 47.3684 46.1605 47.4181 46.0975C47.4978 46.1061 47.5784 46.0968 47.654 46.0704C47.7297 46.0441 47.7985 46.0012 47.8556 45.945L48.529 45.2888L49.0845 45.8442L48.4082 46.5177C48.3066 46.6196 48.2498 46.7576 48.25 46.9015C48.2503 47.0453 48.3077 47.1831 48.4096 47.2847C48.5115 47.3862 48.6495 47.4431 48.7934 47.4428C48.9372 47.4425 49.0751 47.3851 49.1766 47.2832L49.85 46.6098L50.7479 47.5077C50.8494 47.6092 50.9871 47.6663 51.1307 47.6663C51.2743 47.6663 51.4119 47.6092 51.5135 47.5077C51.615 47.4062 51.672 47.2685 51.672 47.1249C51.672 46.9814 51.615 46.8437 51.5135 46.7422L50.6155 45.8442L51.289 45.1708C51.3394 45.1206 51.3795 45.0608 51.4069 44.9951C51.4342 44.9293 51.4484 44.8588 51.4485 44.7876C51.4487 44.7164 51.4348 44.6459 51.4076 44.58C51.3805 44.5142 51.3407 44.4543 51.2904 44.4038C51.2402 44.3534 51.1804 44.3133 51.1147 44.286C51.0489 44.2586 50.9785 44.2444 50.9072 44.2443C50.836 44.2441 50.7655 44.258 50.6996 44.2852C50.6338 44.3123 50.5739 44.3521 50.5234 44.4024L49.85 45.0787L49.2946 44.5233L49.968 43.8498C50.0249 43.7933 50.0682 43.7245 50.0946 43.6487C50.1211 43.5729 50.1299 43.4921 50.1205 43.4124C50.1829 43.3621 50.2334 43.2986 50.2682 43.2264C50.303 43.1542 50.3214 43.0752 50.322 42.9951V42.0367H51.1077V42.9865C51.1077 43.13 51.1647 43.2676 51.2661 43.369C51.3676 43.4705 51.5052 43.5275 51.6487 43.5275C51.7922 43.5275 51.9298 43.4705 52.0313 43.369C52.1328 43.2676 52.1898 43.13 52.1898 42.9865V42.0367H53.4589C53.6024 42.0367 53.7401 41.9797 53.8415 41.8783C53.943 41.7768 54 41.6392 54 41.4957C54 41.3522 53.943 41.2146 53.8415 41.1131C53.7401 41.0116 53.6024 40.9546 53.4589 40.9546H53.4503ZM49.1938 39.9128C49.2065 39.9252 49.22 39.9367 49.2341 39.9474C49.2341 39.9646 49.2341 39.9819 49.2341 39.9992V40.9546H48.788C48.8046 40.8675 48.7997 40.7776 48.7736 40.6929C48.7475 40.6081 48.7011 40.531 48.6384 40.4683L48.4456 40.2754V39.9876C48.4451 39.8995 48.4231 39.8127 48.3815 39.735C48.3399 39.6572 48.2799 39.5908 48.2067 39.5416L48.529 39.2451L49.1938 39.9128ZM44.9575 43.3663H44.7273L44.5632 43.2052L44.9575 42.8109V43.3663ZM46.0396 39.6394H46.2698L46.4339 39.8035L46.0396 40.1949V39.6394ZM47.1908 42.4396L46.8023 42.0367H47.3577V42.267L47.1908 42.4396ZM43.6365 42.267V42.0367H44.192L43.8006 42.431L43.6365 42.267ZM43.8006 40.5604L44.192 40.9546H43.6365V40.7244L43.8006 40.5604ZM46.8023 40.9546L47.1965 40.5604L47.3577 40.7244V40.9546H46.8023ZM44.9546 39.6308V40.1862L44.5603 39.7948L44.7244 39.6308H44.9546ZM46.0367 43.3577V42.8023L46.431 43.1965L46.267 43.3577H46.0367ZM46.9893 37.763H47.044C47.0546 37.7781 47.0662 37.7925 47.0785 37.8062L47.752 38.4796L47.4383 38.7933C47.3888 38.7197 47.3219 38.6595 47.2436 38.6178C47.1653 38.5762 47.078 38.5544 46.9893 38.5544H46.7015L46.5087 38.3587C46.4457 38.2965 46.3685 38.2506 46.2837 38.2251C46.199 38.1995 46.1092 38.195 46.0223 38.2119V37.7687L46.9893 37.763ZM43.9243 37.8062C43.9367 37.7925 43.9482 37.7781 43.9589 37.763H44.0135H44.9661V38.2062C44.8792 38.189 44.7895 38.1934 44.7047 38.219C44.6199 38.2445 44.5426 38.2906 44.4798 38.353L44.2869 38.5487H43.9992C43.9105 38.5487 43.8231 38.5704 43.7449 38.6121C43.6666 38.6537 43.5997 38.714 43.5502 38.7875L43.2365 38.4738L43.9243 37.8062ZM42.4854 39.2451L42.799 39.5588C42.7259 39.6081 42.6659 39.6745 42.6243 39.7522C42.5826 39.83 42.5606 39.9167 42.5602 40.0049V40.2927L42.3674 40.4855C42.3046 40.5483 42.2582 40.6254 42.2321 40.7101C42.2061 40.7949 42.2011 40.8848 42.2177 40.9719H41.7659V40.0164C41.7673 39.9992 41.7673 39.9819 41.7659 39.9646L41.809 39.9301L42.4854 39.2451ZM41.8119 43.0814L41.7687 43.0469C41.7702 43.0297 41.7702 43.0123 41.7687 42.9951V42.0367H42.1976C42.1812 42.1239 42.1863 42.2137 42.2124 42.2984C42.2384 42.3831 42.2847 42.4602 42.3472 42.5231L42.54 42.7159V43.0037C42.54 43.0924 42.5618 43.1797 42.6034 43.258C42.6451 43.3363 42.7053 43.4032 42.7789 43.4527L42.4854 43.752L41.8119 43.0814ZM44.0135 45.2312H43.9589C43.9489 45.2165 43.9373 45.203 43.9243 45.191L43.2509 44.5175L43.5646 44.2038C43.6141 44.2774 43.681 44.3376 43.7592 44.3793C43.8375 44.421 43.9249 44.4427 44.0135 44.4427H44.3013L44.4942 44.6355C44.5569 44.6982 44.634 44.7446 44.7188 44.7707C44.8035 44.7968 44.8934 44.8018 44.9805 44.7852V45.2255L44.0135 45.2312ZM47.0901 45.1967C47.0771 45.2088 47.0655 45.2223 47.0555 45.237H47.0008H46.0482V44.7967C46.1354 44.813 46.2252 44.808 46.3099 44.7819C46.3946 44.7558 46.4718 44.7095 46.5346 44.647L46.7274 44.4542H47.0152C47.1039 44.4542 47.1912 44.4325 47.2695 44.3908C47.3478 44.3492 47.4147 44.2889 47.4642 44.2153L47.7779 44.529L47.0901 45.1967ZM48.529 43.7577L48.2153 43.4441C48.2889 43.3945 48.3492 43.3277 48.3908 43.2494C48.4325 43.1711 48.4542 43.0838 48.4542 42.9951V42.7073L48.647 42.5145C48.7095 42.4516 48.7558 42.3745 48.7819 42.2898C48.8079 42.205 48.813 42.1152 48.7967 42.0281H49.237V42.9865C49.237 43.0037 49.237 43.021 49.237 43.0383C49.2243 43.0506 49.2108 43.0621 49.1967 43.0728L48.529 43.7577Z" fill="white"/>
<path d="M40.5963 52.6565H39.8571V52.102C39.8571 52.0188 39.824 51.939 39.7652 51.8801C39.7063 51.8212 39.6265 51.7882 39.5432 51.7882C39.46 51.7882 39.3802 51.8212 39.3213 51.8801C39.2624 51.939 39.2294 52.0188 39.2294 52.102V52.6565H38.7718V52.102C38.7715 52.0557 38.7609 52.01 38.7406 51.9684C38.7203 51.9267 38.6908 51.8902 38.6544 51.8615C38.6597 51.8151 38.6545 51.7681 38.6393 51.724C38.624 51.6798 38.5991 51.6396 38.5664 51.6063L38.1733 51.2161L38.496 50.8935L38.8891 51.2836C38.9482 51.3427 39.0284 51.376 39.112 51.376C39.1956 51.376 39.2758 51.3427 39.335 51.2836C39.3941 51.2245 39.4273 51.1443 39.4273 51.0607C39.4273 50.9771 39.3941 50.8969 39.335 50.8377L38.9419 50.4476L39.464 49.9255C39.5232 49.8663 39.5564 49.7861 39.5564 49.7025C39.5564 49.6189 39.5232 49.5387 39.464 49.4796C39.4049 49.4204 39.3247 49.3872 39.2411 49.3872C39.1575 49.3872 39.0773 49.4204 39.0182 49.4796L38.496 50.0017L38.1059 49.6086C38.0467 49.5495 37.9665 49.5163 37.8829 49.5163C37.7993 49.5163 37.7191 49.5495 37.66 49.6086C37.6009 49.6678 37.5676 49.748 37.5676 49.8316C37.5676 49.9152 37.6009 49.9954 37.66 50.0545L38.0501 50.4476L37.7275 50.7703L37.3373 50.3772C37.304 50.3445 37.2638 50.3196 37.2196 50.3044C37.1755 50.2891 37.1285 50.284 37.0821 50.2892C37.0534 50.2528 37.0169 50.2233 36.9752 50.203C36.9336 50.1827 36.8879 50.1721 36.8416 50.1718H36.2871V49.7142H36.8416C36.9248 49.7142 37.0046 49.6812 37.0635 49.6223C37.1224 49.5634 37.1554 49.4836 37.1554 49.4004C37.1554 49.3171 37.1224 49.2373 37.0635 49.1784C37.0046 49.1196 36.9248 49.0865 36.8416 49.0865H36.2871V48.3473C36.2914 48.3033 36.2864 48.2589 36.2725 48.217C36.2586 48.1751 36.236 48.1365 36.2063 48.1038C36.1766 48.0711 36.1404 48.045 36.1 48.0271C36.0597 48.0092 36.016 48 35.9718 48C35.9276 48 35.8839 48.0092 35.8436 48.0271C35.8032 48.045 35.767 48.0711 35.7373 48.1038C35.7076 48.1365 35.685 48.1751 35.6711 48.217C35.6572 48.2589 35.6522 48.3033 35.6565 48.3473V49.0924H35.102C35.0188 49.0924 34.939 49.1254 34.8801 49.1843C34.8212 49.2432 34.7882 49.323 34.7882 49.4062C34.7882 49.4895 34.8212 49.5693 34.8801 49.6282C34.939 49.687 35.0188 49.7201 35.102 49.7201H35.6565V50.1777H35.102C35.0553 50.1783 35.0094 50.1891 34.9673 50.2094C34.9252 50.2297 34.8881 50.2589 34.8586 50.295C34.8125 50.2887 34.7657 50.2934 34.7218 50.3087C34.678 50.324 34.6384 50.3495 34.6063 50.3831L34.2132 50.7761L33.8905 50.4535L34.2836 50.0604C34.3427 50.0013 34.376 49.9211 34.376 49.8374C34.376 49.7538 34.3427 49.6736 34.2836 49.6145C34.2245 49.5554 34.1443 49.5222 34.0607 49.5222C33.9771 49.5222 33.8969 49.5554 33.8377 49.6145L33.4447 50.0076L32.9225 49.4854C32.8933 49.456 32.8586 49.4326 32.8203 49.4167C32.7821 49.4007 32.741 49.3925 32.6996 49.3925C32.6581 49.3925 32.6171 49.4007 32.5788 49.4167C32.5405 49.4326 32.5058 49.456 32.4766 49.4854C32.4186 49.5451 32.3861 49.6251 32.3861 49.7084C32.3861 49.7916 32.4186 49.8716 32.4766 49.9313L33.0017 50.4535L32.6086 50.8524C32.5495 50.9115 32.5163 50.9917 32.5163 51.0753C32.5163 51.159 32.5495 51.2392 32.6086 51.2983C32.6678 51.3574 32.748 51.3906 32.8316 51.3906C32.9152 51.3906 32.9954 51.3574 33.0545 51.2983L33.4447 50.9081L33.7673 51.2308L33.3772 51.621C33.3441 51.6541 33.3188 51.6942 33.3031 51.7384C33.2873 51.7825 33.2816 51.8296 33.2862 51.8762C33.2496 51.9044 33.2201 51.9409 33.2002 51.9827C33.1803 52.0245 33.1706 52.0704 33.1718 52.1167V52.6711H32.7142V52.1167C32.7067 52.0383 32.6702 51.9656 32.6119 51.9126C32.5536 51.8597 32.4776 51.8304 32.3989 51.8304C32.3201 51.8304 32.2442 51.8597 32.1859 51.9126C32.1276 51.9656 32.0911 52.0383 32.0835 52.1167V52.6711H31.3473C31.3033 52.6669 31.2589 52.6719 31.217 52.6858C31.1751 52.6997 31.1365 52.7222 31.1038 52.7519C31.0711 52.7816 31.045 52.8178 31.0271 52.8582C31.0092 52.8986 31 52.9423 31 52.9865C31 53.0306 31.0092 53.0743 31.0271 53.1147C31.045 53.1551 31.0711 53.1913 31.1038 53.221C31.1365 53.2507 31.1751 53.2732 31.217 53.2871C31.2589 53.3011 31.3033 53.3061 31.3473 53.3018H32.0835V53.8562C32.0911 53.9346 32.1276 54.0074 32.1859 54.0603C32.2442 54.1133 32.3201 54.1426 32.3989 54.1426C32.4776 54.1426 32.5536 54.1133 32.6119 54.0603C32.6702 54.0074 32.7067 53.9346 32.7142 53.8562V53.2871H33.1718V53.8416C33.1719 53.8881 33.1822 53.934 33.2019 53.976C33.2217 54.0181 33.2505 54.0553 33.2862 54.085C33.2814 54.1312 33.2871 54.1779 33.3028 54.2216C33.3186 54.2653 33.344 54.3048 33.3772 54.3373L33.7673 54.7304L33.4447 55.0531L33.0545 54.6659C32.9954 54.6067 32.9152 54.5735 32.8316 54.5735C32.748 54.5735 32.6678 54.6067 32.6086 54.6659C32.5495 54.725 32.5163 54.8052 32.5163 54.8888C32.5163 54.9724 32.5495 55.0526 32.6086 55.1117L33.0017 55.5048L32.4766 56.027C32.4186 56.0867 32.3861 56.1666 32.3861 56.2499C32.3861 56.3332 32.4186 56.4131 32.4766 56.4728C32.5058 56.5023 32.5405 56.5257 32.5788 56.5416C32.6171 56.5576 32.6581 56.5658 32.6996 56.5658C32.741 56.5658 32.7821 56.5576 32.8203 56.5416C32.8586 56.5257 32.8933 56.5023 32.9225 56.4728L33.4447 55.9478L33.8377 56.3408C33.8969 56.4 33.9771 56.4332 34.0607 56.4332C34.1443 56.4332 34.2245 56.4 34.2836 56.3408C34.3427 56.2817 34.376 56.2015 34.376 56.1179C34.376 56.0343 34.3427 55.9541 34.2836 55.895L33.8905 55.5048L34.2132 55.1821L34.6063 55.5723C34.6388 55.6055 34.6783 55.6309 34.722 55.6466C34.7657 55.6624 34.8124 55.6681 34.8586 55.6632C34.8883 55.699 34.9255 55.7278 34.9676 55.7476C35.0096 55.7673 35.0555 55.7776 35.102 55.7776H35.6565V56.2352H35.102C35.0237 56.2428 34.9509 56.2793 34.898 56.3376C34.845 56.3959 34.8157 56.4718 34.8157 56.5506C34.8157 56.6293 34.845 56.7053 34.898 56.7636C34.9509 56.8219 35.0237 56.8584 35.102 56.8659H35.6565V57.5993C35.664 57.6777 35.7005 57.7504 35.7588 57.8034C35.8171 57.8563 35.893 57.8856 35.9718 57.8856C36.0505 57.8856 36.1265 57.8563 36.1848 57.8034C36.2431 57.7504 36.2796 57.6777 36.2871 57.5993V56.86H36.8416C36.9199 56.8525 36.9927 56.816 37.0456 56.7577C37.0986 56.6994 37.1279 56.6235 37.1279 56.5447C37.1279 56.466 37.0986 56.39 37.0456 56.3317C36.9927 56.2734 36.9199 56.2369 36.8416 56.2294H36.2871V55.7718H36.8416C36.8878 55.773 36.9338 55.7633 36.9756 55.7434C37.0174 55.7236 37.0539 55.6941 37.0821 55.6574C37.1287 55.662 37.1758 55.6563 37.2199 55.6405C37.264 55.6248 37.3041 55.5995 37.3373 55.5664L37.7275 55.1763L38.0501 55.499L37.66 55.8891C37.6009 55.9482 37.5676 56.0284 37.5676 56.112C37.5676 56.1956 37.6009 56.2758 37.66 56.335C37.7191 56.3941 37.7993 56.4273 37.8829 56.4273C37.9665 56.4273 38.0467 56.3941 38.1059 56.335L38.496 55.9419L39.0182 56.467C39.0773 56.5261 39.1575 56.5593 39.2411 56.5593C39.3247 56.5593 39.4049 56.5261 39.464 56.467C39.5232 56.4079 39.5564 56.3277 39.5564 56.244C39.5564 56.1604 39.5232 56.0802 39.464 56.0211L38.9419 55.499L39.335 55.1059C39.3941 55.0467 39.4273 54.9665 39.4273 54.8829C39.4273 54.7993 39.3941 54.7191 39.335 54.66C39.2758 54.6009 39.1956 54.5677 39.112 54.5677C39.0284 54.5677 38.9482 54.6009 38.8891 54.66L38.496 55.0531L38.1733 54.7304L38.5664 54.3373C38.6 54.3052 38.6255 54.2656 38.6408 54.2218C38.6561 54.1779 38.6608 54.1311 38.6544 54.085C38.6906 54.0555 38.7198 54.0184 38.7401 53.9763C38.7603 53.9342 38.7712 53.8883 38.7718 53.8416V53.2871H39.2294V53.8416C39.2294 53.8828 39.2375 53.9236 39.2533 53.9617C39.269 53.9998 39.2921 54.0344 39.3213 54.0635C39.3504 54.0927 39.385 54.1158 39.4231 54.1315C39.4612 54.1473 39.502 54.1554 39.5432 54.1554C39.5845 54.1554 39.6253 54.1473 39.6634 54.1315C39.7014 54.1158 39.736 54.0927 39.7652 54.0635C39.7943 54.0344 39.8175 53.9998 39.8332 53.9617C39.849 53.9236 39.8571 53.8828 39.8571 53.8416V53.2871H40.5963C40.6403 53.2914 40.6847 53.2864 40.7266 53.2725C40.7685 53.2586 40.8071 53.236 40.8398 53.2063C40.8725 53.1766 40.8986 53.1404 40.9165 53.1C40.9344 53.0597 40.9436 53.016 40.9436 52.9718C40.9436 52.9276 40.9344 52.884 40.9165 52.8436C40.8986 52.8032 40.8725 52.767 40.8398 52.7373C40.8071 52.7076 40.7685 52.685 40.7266 52.6711C40.6847 52.6572 40.6403 52.6522 40.5963 52.6565ZM38.1235 52.0522C38.1235 52.0522 38.1411 52.0522 38.1469 52.0727C38.1528 52.0932 38.1469 52.0932 38.1469 52.102V52.6565H37.8917C37.9028 52.6041 37.9005 52.5498 37.8851 52.4986C37.8698 52.4473 37.8418 52.4008 37.8037 52.3631L37.6923 52.2517V52.0903C37.6919 52.0389 37.6793 51.9884 37.6553 51.9429C37.6313 51.8975 37.5967 51.8585 37.5544 51.8292L37.7333 51.6474L38.1235 52.0522ZM35.6594 54.0557H35.5245L35.4306 53.9618L35.6594 53.733V54.0557ZM36.2901 51.8879H36.4221L36.5189 51.9818L36.2901 52.2106V51.8879ZM36.9648 53.516L36.736 53.2871H37.0586V53.4221L36.9648 53.516ZM34.8908 53.4221V53.2871H35.2135L34.9847 53.516L34.8908 53.4221ZM34.9847 52.4277L35.2135 52.6565H34.8967V52.5245L34.9847 52.4277ZM36.7448 52.6565L36.9736 52.4277L37.0674 52.5245V52.6565H36.7448ZM35.6682 51.8879V52.2106L35.4394 51.9818L35.5333 51.8879H35.6682ZM36.2989 54.0557V53.733L36.5277 53.9618L36.4309 54.0557H36.2989ZM36.8533 50.8025H36.8826C36.891 50.8089 36.8979 50.8169 36.9032 50.826L37.2962 51.2191L37.1144 51.398C37.0851 51.3557 37.0461 51.3211 37.0007 51.2971C36.9553 51.2731 36.9047 51.2605 36.8533 51.2602H36.692L36.5805 51.1487C36.5429 51.1106 36.4963 51.0826 36.445 51.0673C36.3938 51.0519 36.3395 51.0496 36.2871 51.0607V50.8055L36.8533 50.8025ZM35.0639 50.8231C35.0691 50.814 35.0761 50.806 35.0844 50.7996H35.6711V51.0548C35.6188 51.0438 35.5645 51.046 35.5132 51.0614C35.462 51.0768 35.4154 51.1048 35.3778 51.1428L35.2634 51.2543H35.105C35.0536 51.2546 35.003 51.2673 34.9576 51.2913C34.9121 51.3153 34.8731 51.3499 34.8439 51.3922L34.662 51.2132L35.0639 50.8231ZM34.2249 51.6591L34.4068 51.841C34.3645 51.8702 34.3299 51.9092 34.3059 51.9546C34.2819 52.0001 34.2693 52.0507 34.2689 52.102V52.2634L34.1575 52.3749C34.1194 52.4125 34.0914 52.459 34.0761 52.5103C34.0607 52.5615 34.0584 52.6158 34.0695 52.6682H33.8143V52.1138C33.8143 52.1138 33.8143 52.0932 33.8143 52.0844C33.8143 52.0756 33.8289 52.0844 33.8377 52.0639L34.2249 51.6591ZM33.8348 53.8914L33.8113 53.8738C33.8113 53.8738 33.8113 53.8504 33.8113 53.8416V53.2871H34.0665C34.0555 53.3395 34.0578 53.3938 34.0731 53.445C34.0885 53.4963 34.1165 53.5429 34.1545 53.5805L34.266 53.6949V53.8533C34.2661 53.9047 34.2787 53.9554 34.3027 54.0009C34.3267 54.0464 34.3614 54.0853 34.4039 54.1144L34.222 54.2962L33.8348 53.8914ZM35.1138 55.1411H35.0844L35.0639 55.1147L34.6708 54.7245L34.8527 54.5427C34.8819 54.5849 34.9209 54.6195 34.9664 54.6435C35.0118 54.6675 35.0624 54.6802 35.1138 54.6805H35.2722L35.3866 54.792C35.4242 54.83 35.4708 54.858 35.522 54.8734C35.5733 54.8888 35.6276 54.891 35.6799 54.88V55.1352L35.1138 55.1411ZM36.9032 55.1205L36.8826 55.1469H36.8533H36.2989V54.8917C36.3512 54.9028 36.4055 54.9005 36.4568 54.8851C36.508 54.8698 36.5546 54.8418 36.5922 54.8037L36.7037 54.6923H36.865C36.9164 54.692 36.967 54.6793 37.0124 54.6553C37.0579 54.6313 37.0969 54.5967 37.1261 54.5544L37.308 54.7363L36.9032 55.1205ZM37.7392 54.2845L37.5602 54.1026C37.6025 54.0734 37.6371 54.0344 37.6611 53.989C37.6851 53.9435 37.6978 53.893 37.6981 53.8416V53.6832L37.8096 53.5688C37.8476 53.5311 37.8756 53.4846 37.891 53.4333C37.9064 53.3821 37.9086 53.3278 37.8976 53.2754H38.1528V53.8298C38.1528 53.8298 38.1528 53.8504 38.1528 53.8621L38.1293 53.8797L37.7392 54.2845Z" fill="white"/>
</svg>
