<svg width="62" height="62" viewBox="0 0 62 62" fill="none" xmlns="http://www.w3.org/2000/svg">
<rect width="62" height="62" rx="10" fill="#81D7FC"/>
<path d="M30.8138 18.7643C29.2567 18.7643 27.7634 19.3929 26.6624 20.5117C25.5614 21.6305 24.9429 23.148 24.9429 24.7303C24.9429 26.3125 25.5614 27.83 26.6624 28.9488C27.7634 30.0676 29.2567 30.6962 30.8138 30.6962V18.7643Z" fill="#FEF37C"/>
<path d="M30.8138 10C30.5798 10.0151 30.3602 10.12 30.1995 10.2934C30.0389 10.4669 29.9491 10.696 29.9485 10.9342V16.8166C29.9491 17.0549 30.0389 17.2839 30.1995 17.4574C30.3602 17.6309 30.5798 17.7358 30.8138 17.7509V10Z" fill="#FEF37C"/>
<path d="M16.3291 24.7763C16.3291 25.0258 16.4267 25.2651 16.6003 25.4415C16.7739 25.618 17.0094 25.7171 17.255 25.7171H23.0437C23.2892 25.7171 23.5247 25.618 23.6984 25.4415C23.872 25.2651 23.9695 25.0258 23.9695 24.7763C23.9695 24.5268 23.872 24.2875 23.6984 24.111C23.5247 23.9346 23.2892 23.8354 23.0437 23.8354H17.2485C17.004 23.8372 16.7702 23.9371 16.598 24.1133C16.4258 24.2896 16.3291 24.5279 16.3291 24.7763Z" fill="#FEF37C"/>
<path d="M20.5903 35.2397C20.7635 35.4126 20.9965 35.5095 21.2393 35.5095C21.4821 35.5095 21.7151 35.4126 21.8883 35.2397L25.9919 31.0631C26.1417 30.8836 26.22 30.6536 26.2111 30.4183C26.2022 30.1831 26.1068 29.9598 25.9438 29.7925C25.7808 29.6252 25.562 29.5261 25.3306 29.5147C25.0992 29.5033 24.8721 29.5805 24.6939 29.731L20.5903 33.8988C20.5031 33.9865 20.4338 34.0909 20.3866 34.206C20.3393 34.3211 20.3149 34.4446 20.3149 34.5693C20.3149 34.694 20.3393 34.8175 20.3866 34.9325C20.4338 35.0476 20.5031 35.152 20.5903 35.2397Z" fill="#FEF37C"/>
<path d="M20.5902 14.3241C20.4168 14.5005 20.3193 14.7397 20.3193 14.989C20.3193 15.2384 20.4168 15.4776 20.5902 15.654L24.683 19.813C24.7631 19.9194 24.8647 20.0072 24.981 20.0705C25.0973 20.1338 25.2255 20.1712 25.3571 20.18C25.4887 20.1889 25.6207 20.169 25.7441 20.1219C25.8676 20.0747 25.9797 20.0013 26.0729 19.9065C26.1662 19.8117 26.2384 19.6978 26.2849 19.5724C26.3313 19.4469 26.3508 19.3128 26.3421 19.1791C26.3334 19.0454 26.2966 18.9151 26.2344 18.7969C26.1721 18.6788 26.0856 18.5755 25.9809 18.4941L21.8989 14.3241C21.7253 14.1478 21.49 14.0488 21.2446 14.0488C20.9992 14.0488 20.7638 14.1478 20.5902 14.3241Z" fill="#FEF37C"/>
<path d="M30.7837 18.7643C32.3408 18.7643 33.834 19.3929 34.9351 20.5117C36.0361 21.6305 36.6546 23.148 36.6546 24.7303C36.6546 26.3125 36.0361 27.83 34.9351 28.9488C33.834 30.0676 32.3408 30.6962 30.7837 30.6962V18.7643Z" fill="#FEE436"/>
<path d="M30.7834 10C31.0174 10.0151 31.237 10.12 31.3977 10.2934C31.5583 10.4669 31.6481 10.696 31.6487 10.9342V16.8166C31.6486 17.055 31.559 17.2844 31.3983 17.458C31.2375 17.6316 31.0176 17.7363 30.7834 17.7509V10Z" fill="#FEE436"/>
<path d="M45.2664 24.7764C45.2664 25.026 45.1689 25.2653 44.9952 25.4417C44.8216 25.6181 44.5861 25.7173 44.3405 25.7173H38.5518C38.3063 25.7173 38.0708 25.6181 37.8972 25.4417C37.7235 25.2653 37.626 25.026 37.626 24.7764C37.626 24.5269 37.7235 24.2876 37.8972 24.1112C38.0708 23.9347 38.3063 23.8356 38.5518 23.8356H44.3405C44.5861 23.8356 44.8216 23.9347 44.9952 24.1112C45.1689 24.2876 45.2664 24.5269 45.2664 24.7764Z" fill="#FEE436"/>
<path d="M41.0049 35.2398C40.8313 35.4161 40.596 35.5151 40.3506 35.5151C40.1052 35.5151 39.8698 35.4161 39.6962 35.2398L35.6034 31.0633C35.4431 30.8839 35.3569 30.6488 35.3626 30.4066C35.3683 30.1644 35.4655 29.9337 35.6341 29.7624C35.8027 29.591 36.0297 29.4922 36.2681 29.4864C36.5064 29.4806 36.7378 29.5682 36.9143 29.7312L41.0049 33.8901C41.094 33.9777 41.1649 34.0825 41.2133 34.1985C41.2617 34.3144 41.2866 34.4391 41.2866 34.565C41.2866 34.6909 41.2617 34.8156 41.2133 34.9315C41.1649 35.0475 41.094 35.1523 41.0049 35.2398Z" fill="#FEE436"/>
<path d="M41.0047 14.3238C41.0911 14.4109 41.1597 14.5145 41.2065 14.6286C41.2533 14.7427 41.2774 14.8651 41.2774 14.9888C41.2774 15.1124 41.2533 15.2348 41.2065 15.349C41.1597 15.4631 41.0911 15.5667 41.0047 15.6537L36.9141 19.8127C36.832 19.913 36.7304 19.9949 36.6155 20.0531C36.5007 20.1113 36.3751 20.1446 36.247 20.1509C36.1188 20.1572 35.9907 20.1364 35.8708 20.0897C35.751 20.043 35.642 19.9715 35.5508 19.8798C35.4596 19.788 35.3882 19.678 35.341 19.5567C35.2939 19.4353 35.2721 19.3054 35.277 19.1751C35.282 19.0447 35.3135 18.9169 35.3697 18.7996C35.4258 18.6823 35.5053 18.5782 35.6032 18.4938L39.696 14.3348C39.8681 14.1571 40.1027 14.0561 40.3481 14.054C40.5935 14.052 40.8297 14.149 41.0047 14.3238Z" fill="#FEE436"/>
<path d="M46.4994 34.0273C45.6952 31.1323 43.9801 28.5847 41.6163 26.7739C39.2526 24.9631 36.3702 23.9888 33.41 24.0001C30.4498 24.0114 27.5747 25.0075 25.2244 26.8362C22.874 28.6649 21.1777 31.2255 20.3948 34.1266C19.1904 33.7419 17.9184 33.6262 16.6658 33.7873C15.4133 33.9484 14.2098 34.3825 13.1376 35.06C12.0655 35.7374 11.1499 36.6422 10.4537 37.7124C9.75739 38.7826 9.29681 39.993 9.10344 41.2608C8.91007 42.5287 8.98845 43.824 9.33324 45.0581C9.67802 46.2923 10.2811 47.4363 11.1011 48.4117C11.9212 49.3872 12.9389 50.1712 14.0847 50.71C15.2305 51.2488 16.4773 51.5298 17.7398 51.5338H44.1875C46.3186 51.5451 48.3807 50.7672 49.9883 49.3456C51.5959 47.924 52.6388 45.9561 52.9222 43.8097C53.2055 41.6634 52.7097 39.4857 51.5276 37.6839C50.3456 35.882 48.5581 34.5794 46.4994 34.0197V34.0273Z" fill="white"/>
<path d="M43.9116 35.6076C43.3608 33.6827 42.2932 31.9518 40.8286 30.6089C39.3641 29.266 37.5603 28.3641 35.6197 28.0044C33.679 27.6447 31.6781 27.8413 29.8413 28.5723C28.0044 29.3033 26.4042 30.5397 25.22 32.1429C24.0359 33.7462 23.3145 35.6529 23.1369 37.6494C22.9593 39.6458 23.3323 41.6531 24.2143 43.4462C25.0963 45.2393 26.4523 46.7473 28.1303 47.8013C29.8083 48.8552 31.7421 49.4134 33.7148 49.4132H43.9141C45.7157 49.4132 47.4435 48.686 48.7175 47.3914C49.9914 46.0969 50.707 44.3412 50.707 42.5104C50.707 40.6797 49.9914 38.9239 48.7175 37.6294C47.4435 36.3349 45.7157 35.6076 43.9141 35.6076H43.9116Z" fill="#CFEDFA"/>
</svg>
