<svg width="62" height="62" viewBox="0 0 62 62" fill="none" xmlns="http://www.w3.org/2000/svg">
<rect width="62" height="62" rx="10" fill="#6B96D7"/>
<path d="M48.0904 20.1157C47.3593 17.4839 45.8001 15.1679 43.6512 13.5217C41.5023 11.8755 38.882 10.9899 36.1909 11.0001C33.4998 11.0103 30.8861 11.9159 28.7494 13.5784C26.6127 15.2408 25.0706 17.5687 24.3589 20.206C23.264 19.8563 22.1076 19.7511 20.9689 19.8976C19.8303 20.044 18.7362 20.4387 17.7615 21.0545C16.7868 21.6704 15.9545 22.4929 15.3215 23.4658C14.6885 24.4387 14.2698 25.5391 14.094 26.6917C13.9182 27.8442 13.9895 29.0218 14.3029 30.1438C14.6164 31.2658 15.1646 32.3057 15.9101 33.1925C16.6556 34.0793 17.5808 34.792 18.6224 35.2818C19.6641 35.7717 20.7975 36.0271 21.9453 36.0307H45.9887C47.926 36.041 49.8006 35.3338 51.2621 34.0415C52.7235 32.7491 53.6717 30.9601 53.9292 29.0089C54.1868 27.0577 53.7361 25.0779 52.6615 23.4399C51.5869 21.8018 49.9619 20.6177 48.0904 20.1088V20.1157Z" fill="#AFCEFA"/>
<path d="M47.204 31.4831C46.3632 28.4565 44.5701 25.7931 42.0989 23.9C39.6277 22.0069 36.6143 20.9883 33.5196 21.0001C30.4248 21.0119 27.419 22.0533 24.9618 23.9651C22.5046 25.877 20.7312 28.554 19.9128 31.5869C18.6536 31.1848 17.3238 31.0638 16.0143 31.2322C14.7048 31.4006 13.4466 31.8545 12.3257 32.5627C11.2048 33.2709 10.2476 34.2168 9.51973 35.3357C8.79182 36.4545 8.31031 37.72 8.10814 39.0454C7.90598 40.3709 7.98793 41.7251 8.34839 43.0153C8.70884 44.3056 9.3393 45.5016 10.1966 46.5214C11.054 47.5412 12.118 48.3608 13.3158 48.9241C14.5137 49.4874 15.8171 49.7812 17.137 49.7853H44.787C47.0149 49.7971 49.1707 48.9839 50.8514 47.4977C52.5321 46.0115 53.6224 43.9541 53.9186 41.7102C54.2148 39.4663 53.6965 37.1896 52.4607 35.3059C51.2249 33.4221 49.3562 32.0603 47.204 31.4751V31.4831Z" fill="white"/>
<path d="M44.4985 33.1354C43.9226 31.123 42.8066 29.3134 41.2754 27.9095C39.7442 26.5055 37.8585 25.5626 35.8297 25.1866C33.8008 24.8105 31.7089 25.0161 29.7886 25.7803C27.8682 26.5445 26.1953 27.8371 24.9573 29.5133C23.7193 31.1894 22.9652 33.1828 22.7795 35.27C22.5938 37.3572 22.9838 39.4557 23.9059 41.3303C24.8279 43.2049 26.2456 44.7815 27.9999 45.8833C29.7542 46.9852 31.7758 47.5687 33.8382 47.5685H44.5012C46.3846 47.5685 48.191 46.8082 49.5228 45.4549C50.8546 44.1015 51.6028 42.2659 51.6028 40.352C51.6028 38.438 50.8546 36.6024 49.5228 35.2491C48.191 33.8957 46.3846 33.1354 44.5012 33.1354H44.4985Z" fill="#CFEDFA"/>
</svg>
