<svg width="62" height="62" viewBox="0 0 62 62" fill="none" xmlns="http://www.w3.org/2000/svg">
<rect width="62" height="62" rx="10" fill="#8DB5F5"/>
<path d="M18.3988 24.8839C18.6084 25.0932 18.8905 25.2105 19.1844 25.2105C19.4783 25.2105 19.7604 25.0932 19.97 24.8839L24.9375 19.828C25.1189 19.6107 25.2136 19.3322 25.2028 19.0474C25.1921 18.7627 25.0766 18.4923 24.8793 18.2898C24.682 18.0873 24.4172 17.9673 24.1371 17.9536C23.857 17.9398 23.5819 18.0332 23.3663 18.2154L18.3988 23.2607C18.2932 23.3668 18.2093 23.4932 18.1521 23.6325C18.0949 23.7718 18.0654 23.9213 18.0654 24.0723C18.0654 24.2232 18.0949 24.3727 18.1521 24.512C18.2093 24.6513 18.2932 24.7777 18.3988 24.8839Z" fill="#FEF37C"/>
<path d="M43.1113 24.8839C42.9012 25.0972 42.6162 25.2171 42.3192 25.2171C42.0221 25.2171 41.7372 25.0972 41.5271 24.8839L36.5726 19.828C36.3786 19.6109 36.2742 19.3262 36.2811 19.033C36.288 18.7398 36.4057 18.4606 36.6098 18.2532C36.8139 18.0458 37.0887 17.9262 37.3772 17.9192C37.6657 17.9121 37.9459 18.0182 38.1595 18.2154L43.1113 23.25C43.2192 23.356 43.3049 23.4829 43.3635 23.6233C43.4221 23.7636 43.4523 23.9145 43.4523 24.0669C43.4523 24.2194 43.4221 24.3703 43.3635 24.5106C43.3049 24.651 43.2192 24.7779 43.1113 24.8839Z" fill="#FEE436"/>
<path d="M47.204 21.4831C46.3632 18.4565 44.5701 15.7931 42.0989 13.9C39.6277 12.0069 36.6143 10.9883 33.5196 11.0001C30.4248 11.0119 27.419 12.0533 24.9618 13.9651C22.5046 15.877 20.7312 18.554 19.9128 21.5869C18.6536 21.1848 17.3238 21.0638 16.0143 21.2322C14.7048 21.4006 13.4466 21.8545 12.3257 22.5627C11.2048 23.2709 10.2476 24.2168 9.51973 25.3357C8.79182 26.4545 8.31031 27.72 8.10814 29.0454C7.90598 30.3709 7.98793 31.7251 8.34839 33.0153C8.70884 34.3056 9.3393 35.5016 10.1966 36.5214C11.054 37.5412 12.118 38.3608 13.3158 38.9241C14.5137 39.4874 15.8171 39.7812 17.137 39.7853H44.787C47.0149 39.7971 49.1707 38.9839 50.8514 37.4977C52.5321 36.0115 53.6224 33.9541 53.9186 31.7102C54.2148 29.4663 53.6965 27.1896 52.4607 25.3059C51.2249 23.4221 49.3562 22.0603 47.204 21.4751V21.4831Z" fill="white"/>
<path d="M22.4707 41.6905C22.6309 41.8531 22.7579 42.0462 22.8446 42.2587C22.9313 42.4712 22.9759 42.6991 22.9759 42.9291C22.9759 43.1592 22.9313 43.387 22.8446 43.5996C22.7579 43.8121 22.6309 44.0052 22.4707 44.1678L14.84 51.9219C14.6798 52.0848 14.4896 52.2139 14.2802 52.3021C14.0708 52.3902 13.8464 52.4356 13.6198 52.4356C13.3932 52.4356 13.1687 52.3902 12.9594 52.3021C12.75 52.2139 12.5597 52.0848 12.3995 51.9219C12.2392 51.7591 12.1121 51.5658 12.0254 51.353C11.9387 51.1402 11.894 50.9122 11.894 50.6819C11.894 50.4516 11.9387 50.2236 12.0254 50.0108C12.1121 49.7981 12.2392 49.6047 12.3995 49.4419L20.0301 41.6905C20.1902 41.5273 20.3804 41.3978 20.5898 41.3095C20.7992 41.2212 21.0237 41.1757 21.2504 41.1757C21.4771 41.1757 21.7016 41.2212 21.911 41.3095C22.1204 41.3978 22.3106 41.5273 22.4707 41.6905Z" fill="white"/>
<path d="M30.3666 41.6906C30.5268 41.8532 30.6539 42.0463 30.7405 42.2588C30.8272 42.4714 30.8719 42.6992 30.8719 42.9293C30.8719 43.1594 30.8272 43.3872 30.7405 43.5997C30.6539 43.8123 30.5268 44.0054 30.3666 44.168L22.7334 51.9221C22.5731 52.0849 22.3829 52.2141 22.1735 52.3022C21.9641 52.3903 21.7397 52.4357 21.5131 52.4357C21.2865 52.4357 21.0621 52.3903 20.8527 52.3022C20.6433 52.2141 20.4531 52.0849 20.2928 51.9221C20.1326 51.7592 20.0054 51.5659 19.9187 51.3532C19.832 51.1404 19.7874 50.9124 19.7874 50.6821C19.7874 50.4518 19.832 50.2237 19.9187 50.011C20.0054 49.7982 20.1326 49.6049 20.2928 49.442L27.9234 41.6906C28.0836 41.527 28.2739 41.3972 28.4835 41.3087C28.6932 41.2201 28.918 41.1745 29.145 41.1745C29.3721 41.1745 29.5969 41.2201 29.8065 41.3087C30.0161 41.3972 30.2065 41.527 30.3666 41.6906Z" fill="white"/>
<path d="M38.6624 41.6905C38.8226 41.8532 38.9496 42.0462 39.0363 42.2588C39.123 42.4713 39.1676 42.6992 39.1676 42.9292C39.1676 43.1593 39.123 43.3871 39.0363 43.5997C38.9496 43.8122 38.8226 44.0053 38.6624 44.1679L31.0344 51.922C30.8741 52.0849 30.6839 52.214 30.4745 52.3022C30.2651 52.3903 30.0407 52.4356 29.8141 52.4356C29.5875 52.4356 29.3631 52.3903 29.1537 52.3022C28.9443 52.214 28.7541 52.0849 28.5938 51.922C28.4336 51.7592 28.3065 51.5659 28.2197 51.3531C28.133 51.1403 28.0884 50.9123 28.0884 50.682C28.0884 50.4517 28.133 50.2237 28.2197 50.0109C28.3065 49.7981 28.4336 49.6048 28.5938 49.442L36.2219 41.6905C36.3819 41.5274 36.5721 41.3979 36.7815 41.3096C36.9909 41.2213 37.2154 41.1758 37.4421 41.1758C37.6688 41.1758 37.8933 41.2213 38.1027 41.3096C38.3121 41.3979 38.5023 41.5274 38.6624 41.6905Z" fill="white"/>
<path d="M47.574 41.6905C47.7342 41.8532 47.8613 42.0462 47.948 42.2588C48.0346 42.4713 48.0793 42.6992 48.0793 42.9292C48.0793 43.1593 48.0346 43.3871 47.948 43.5997C47.8613 43.8122 47.7342 44.0053 47.574 44.1679L39.946 51.922C39.7858 52.0849 39.5955 52.214 39.3861 52.3022C39.1768 52.3903 38.9523 52.4356 38.7257 52.4356C38.4991 52.4356 38.2747 52.3903 38.0653 52.3022C37.8559 52.214 37.6657 52.0849 37.5055 51.922C37.3452 51.7592 37.2181 51.5659 37.1314 51.3531C37.0446 51.1403 37 50.9123 37 50.682C37 50.4517 37.0446 50.2237 37.1314 50.0109C37.2181 49.7981 37.3452 49.6048 37.5055 49.442L45.1335 41.6905C45.2935 41.5274 45.4837 41.3979 45.6931 41.3096C45.9025 41.2213 46.127 41.1758 46.3537 41.1758C46.5805 41.1758 46.805 41.2213 47.0144 41.3096C47.2238 41.3979 47.414 41.5274 47.574 41.6905Z" fill="white"/>
<path d="M44.4985 23.1353C43.9226 21.123 42.8066 19.3134 41.2754 17.9094C39.7442 16.5054 37.8585 15.5626 35.8297 15.1865C33.8008 14.8104 31.7089 15.016 29.7886 15.7802C27.8682 16.5444 26.1953 17.8371 24.9573 19.5132C23.7193 21.1893 22.9652 23.1827 22.7795 25.2699C22.5938 27.3571 22.9838 29.4556 23.9059 31.3302C24.8279 33.2048 26.2456 34.7814 27.9999 35.8833C29.7542 36.9851 31.7758 37.5686 33.8382 37.5685H44.5012C46.3846 37.5685 48.191 36.8082 49.5228 35.4548C50.8546 34.1014 51.6028 32.2659 51.6028 30.3519C51.6028 28.4379 50.8546 26.6024 49.5228 25.249C48.191 23.8956 46.3846 23.1353 44.5012 23.1353H44.4985Z" fill="#CFEDFA"/>
</svg>
